<svg id="jira-logo-gradient-blue-attribution_rgb" xmlns="http://www.w3.org/2000/svg" xmlns:xlink="http://www.w3.org/1999/xlink" width="161.955" height="62.528" viewBox="0 0 161.955 62.528">
  <defs>
    <linearGradient id="linear-gradient" x1="0.98" y1="0.03" x2="0.588" y2="-0.375" gradientUnits="objectBoundingBox">
      <stop offset="0.18" stop-color="#0050d3"/>
      <stop offset="1" stop-color="#0082ff"/>
    </linearGradient>
    <linearGradient id="linear-gradient-2" x1="1.008" y1="-0.895" x2="0.554" y2="-1.339" xlink:href="#linear-gradient"/>
  </defs>
  <g id="Logo_Lock-up" transform="translate(0 20.668)">
    <path id="패스_2147" data-name="패스 2147" d="M128.442,92.2h4.612v23.47c0,6.189-2.744,10.451-9.108,10.451a16.454,16.454,0,0,1-5.546-.876v-4.5a13.374,13.374,0,0,0,4.787.876c3.912,0,5.255-2.335,5.255-5.722Z" transform="translate(-65.096 -86.946)" fill="#20385b"/>
    <path id="패스_2148" data-name="패스 2148" d="M155.789,89.1a3.094,3.094,0,1,1-3.094,3.094h0A2.922,2.922,0,0,1,155.38,89.1Zm-2.277,9.867h4.437v25.689h-4.437Z" transform="translate(-79.365 -85.655)" fill="#20385b"/>
    <path id="패스_2149" data-name="패스 2149" d="M177.42,131.42H173.1V105.731h4.32v4.554c1.518-3.036,4.028-5.2,9.108-4.9v4.32c-5.663-.584-9.108,1.109-9.108,6.6Z" transform="translate(-87.861 -92.42)" fill="#20385b"/>
    <path id="패스_2150" data-name="패스 2150" d="M217.975,126.7c-1.635,3.386-4.729,5.138-8.7,5.138-6.831,0-10.275-5.78-10.275-13.37,0-7.24,3.62-13.37,10.8-13.37a8.423,8.423,0,0,1,8.174,5.021v-4.5h4.437v25.689h-4.437Zm-7.473.993c3.97,0,7.531-2.51,7.531-8.232v-2.043c0-5.722-3.27-8.232-7.006-8.232-4.963,0-7.531,3.269-7.531,9.225-.058,6.247,2.452,9.283,7.006,9.283Z" transform="translate(-98.639 -92.314)" fill="#20385b"/>
    <path id="패스_2151" data-name="패스 2151" d="M81.5,83.2H61.3a9.12,9.12,0,0,0,9.108,9.108h3.737v3.561a9.119,9.119,0,0,0,9.108,9.108h0V84.951A1.756,1.756,0,0,0,81.5,83.2Z" transform="translate(-41.333 -83.2)" fill="#0082ff"/>
    <path id="패스_2152" data-name="패스 2152" d="M64.4,100.4H44.2a9.119,9.119,0,0,0,9.108,9.108h3.737v3.62a9.119,9.119,0,0,0,9.108,9.108V102.21A1.808,1.808,0,0,0,64.4,100.4Z" transform="translate(-34.216 -90.358)" fill="url(#linear-gradient)"/>
    <path id="패스_2153" data-name="패스 2153" d="M47.3,117.6H27.1a9.119,9.119,0,0,0,9.108,9.108h3.678v3.561a9.119,9.119,0,0,0,9.108,9.108h0V119.293A1.694,1.694,0,0,0,47.3,117.6Z" transform="translate(-27.1 -97.516)" fill="url(#linear-gradient-2)"/>
  </g>
  <g id="Attribution" transform="translate(58.091)">
    <path id="패스_2154" data-name="패스 2154" d="M218.2,57.083c0-2.335-1.518-3.386-4.32-4.087-1.751-.467-2.16-.817-2.16-1.4,0-.7.642-1.051,1.81-1.051a10.1,10.1,0,0,1,4.087,1.051V48.676a9.367,9.367,0,0,0-3.97-.876c-3.094,0-4.787,1.46-4.787,3.853,0,2.277,1.518,3.445,4.087,4.028,1.81.409,2.335.7,2.335,1.46,0,.584-.409,1.051-1.751,1.051a10.5,10.5,0,0,1-4.729-1.343v3.094a10.773,10.773,0,0,0,4.671,1.109C216.623,61.053,218.2,59.477,218.2,57.083Z" transform="translate(-160.809 -47.8)" fill="#0052cc"/>
    <path id="패스_2155" data-name="패스 2155" d="M285.3,48.158V61h2.744V51.194l1.168,2.569,3.853,7.181h3.445V48.1h-2.744v8.29L292.715,54l-3.094-5.9H285.3Z" transform="translate(-192.646 -47.925)" fill="#0052cc"/>
    <path id="패스_2156" data-name="패스 2156" d="M253.478,48.2H250.5V61.044h2.978Z" transform="translate(-178.163 -47.966)" fill="#0052cc"/>
    <path id="패스_2157" data-name="패스 2157" d="M169.2,48.2V61.044h6.13l.934-2.8h-4.087V48.2Z" transform="translate(-144.329 -47.966)" fill="#0052cc"/>
    <path id="패스_2158" data-name="패스 2158" d="M148.4,48.2V51h3.328V61.044h2.978V51h3.561V48.2Z" transform="translate(-135.672 -47.966)" fill="#0052cc"/>
    <path id="패스_2159" data-name="패스 2159" d="M135.007,48.2H131.1l-4.5,12.844h3.445l.642-2.16a8.354,8.354,0,0,0,4.787,0l.642,2.16h3.445Zm-1.985,8.349a5.037,5.037,0,0,1-1.635-.234l1.635-5.6,1.635,5.6a5.037,5.037,0,0,1-1.635.234Z" transform="translate(-126.6 -47.966)" fill="#0052cc"/>
    <path id="패스_2160" data-name="패스 2160" d="M191.707,48.2H187.8l-4.5,12.844h3.445l.642-2.16a8.354,8.354,0,0,0,4.787,0l.642,2.16h3.445Zm-1.927,8.349a5.037,5.037,0,0,1-1.635-.234l1.635-5.6,1.635,5.6A5.274,5.274,0,0,1,189.781,56.549Z" transform="translate(-150.197 -47.966)" fill="#0052cc"/>
    <path id="패스_2161" data-name="패스 2161" d="M268.007,48.2H264.1l-4.5,12.844h3.445l.642-2.16a8.354,8.354,0,0,0,4.787,0l.642,2.16h3.445Zm-1.985,8.349a5.037,5.037,0,0,1-1.635-.234l1.635-5.6,1.635,5.6a5.037,5.037,0,0,1-1.635.234Z" transform="translate(-181.95 -47.966)" fill="#0052cc"/>
    <path id="패스_2162" data-name="패스 2162" d="M238.416,57.083c0-2.335-1.518-3.386-4.32-4.087-1.751-.467-2.16-.817-2.16-1.4,0-.7.642-1.051,1.751-1.051a10.1,10.1,0,0,1,4.087,1.051V48.676a9.628,9.628,0,0,0-4.028-.876c-3.094,0-4.787,1.46-4.787,3.853,0,2.277,1.518,3.445,4.087,4.028,1.81.409,2.335.7,2.335,1.46,0,.584-.409,1.051-1.751,1.051a10.5,10.5,0,0,1-4.729-1.343v3.094a10.774,10.774,0,0,0,4.671,1.109C236.9,61.053,238.416,59.477,238.416,57.083Z" transform="translate(-169.174 -47.8)" fill="#0052cc"/>
  </g>
</svg>
