<svg xmlns="http://www.w3.org/2000/svg" xmlns:xlink="http://www.w3.org/1999/xlink" width="130.902" height="42.256" viewBox="0 0 130.902 42.256">
  <defs>
    <clipPath id="clip-path">
      <rect id="사각형_5" data-name="사각형 5" width="130.902" height="42.256" fill="none"/>
    </clipPath>
  </defs>
  <g id="그룹_4610" data-name="그룹 4610" transform="translate(0 0)">
    <g id="그룹_1" data-name="그룹 1" transform="translate(0 0)" clip-path="url(#clip-path)">
      <path id="패스_1" data-name="패스 1" d="M89.325,48.771a8.884,8.884,0,0,1,.248-2.109,7.607,7.607,0,0,1,.825-2.018h-.532a7.364,7.364,0,0,0-.954,1.994,7.233,7.233,0,0,0-.33,2.133,6.478,6.478,0,0,0,.349,2.16,11.077,11.077,0,0,0,.936,1.985H90.4a7.766,7.766,0,0,1-.825-2.022,8.917,8.917,0,0,1-.248-2.124" transform="translate(-21.153 -10.661)" fill="#fff"/>
      <path id="패스_2" data-name="패스 2" d="M99.823,48.53H92.209v.734H95.6v3.22h.807v-3.22h3.412Zm-2.4-1.889a2.7,2.7,0,0,1-.619-.459,1.325,1.325,0,0,1-.362-.89H98.96v-.734H93.053v.734h2.531a1.322,1.322,0,0,1-.454.913,3.727,3.727,0,0,1-.766.546,4.615,4.615,0,0,1-.83.321,5.8,5.8,0,0,1-.885.174l.467.66q.359-.09.735-.193a4.605,4.605,0,0,0,.752-.275,4.379,4.379,0,0,0,.77-.491,2.5,2.5,0,0,0,.605-.619,2.345,2.345,0,0,0,.528.555,4.387,4.387,0,0,0,.619.418,4.852,4.852,0,0,0,.9.352,7.487,7.487,0,0,0,.885.206l.431-.7a6.288,6.288,0,0,1-1-.183,4.323,4.323,0,0,1-.913-.339" transform="translate(-22.019 -10.64)" fill="#fff"/>
      <path id="패스_3" data-name="패스 3" d="M105.246,48.817a6.629,6.629,0,0,0-.344-2.174,10.636,10.636,0,0,0-.94-2h-.523a7.869,7.869,0,0,1,.835,2.041,8.945,8.945,0,0,1,.248,2.132,8.8,8.8,0,0,1-.248,2.1,7.332,7.332,0,0,1-.835,2h.523a6.835,6.835,0,0,0,.958-1.976,7.327,7.327,0,0,0,.326-2.124" transform="translate(-24.701 -10.661)" fill="#fff"/>
      <path id="패스_4" data-name="패스 4" d="M109.708,46.49a1.59,1.59,0,0,1-.706-.165.567.567,0,0,1-.339-.55.533.533,0,0,1,.339-.527,1.709,1.709,0,0,1,.706-.151,1.839,1.839,0,0,1,.725.151.527.527,0,0,1,.358.518.572.572,0,0,1-.358.559,1.71,1.71,0,0,1-.725.165m4.788,5.118-4.825-.009v-.532h4.705V49.334h-5.513v.642h4.706v.5h-4.706v1.77H114.5Zm-2.623-4.394q-.532.047-1.11.11c-.386.043-.807.073-1.266.091-.373.013-.76.026-1.161.042s-.772.023-1.114.023l.193.77q.449-.055.972-.1t.908-.064v.972h.779V48.032l.967-.1q.528-.055.922-.119Zm1.165-2.779h-.8v3.852h-1.376v.642h1.376v.22h.8Zm1.339-.2h-.807V49.15h.807Zm-4.668.247a2.721,2.721,0,0,0-1.225.285,1.02,1.02,0,0,0-.573,1,1.065,1.065,0,0,0,.573,1.032,2.635,2.635,0,0,0,1.234.3,2.666,2.666,0,0,0,1.238-.3,1.063,1.063,0,0,0,.587-1.028,1.018,1.018,0,0,0-.591-.995,2.8,2.8,0,0,0-1.243-.289" transform="translate(-25.604 -10.563)" fill="#fff"/>
      <path id="패스_5" data-name="패스 5" d="M125.621,44.234h-.808V52.4h.808Zm-1.862.275h-.8v2.679h-1.622v.734h1.622V51.81h.8Zm-1.413,4.815q-.514.129-1.321.285a6.963,6.963,0,0,1-1.184.156V45.408h-.8v5.2a16.645,16.645,0,0,0,1.981-.225q.889-.161,1.423-.308Z" transform="translate(-28.427 -10.563)" fill="#fff"/>
      <path id="패스_6" data-name="패스 6" d="M137.887,50.957h-7.614v.734h7.614Zm-.936-2.146H132.19V47.747h4.494v-.679H132.19v-.945h4.623V45.39h-5.43v4.155l5.577.009Z" transform="translate(-31.109 -10.839)" fill="#fff"/>
      <path id="패스_7" data-name="패스 7" d="M144.641,46.747a1.729,1.729,0,0,1-.885-.206.639.639,0,0,1,0-1.143,1.969,1.969,0,0,1,1.77,0,.639.639,0,0,1,0,1.143,1.73,1.73,0,0,1-.885.206m4.165,2.789h-5.613v.733H148v2.137h.807Zm-1.413-2.1q-.77.082-1.436.161t-1.591.123q-.8.037-1.316.069t-1.28.023l.193.779q.8-.055,1.316-.1t1.013-.069v.89h.808v-.981q.623-.056,1.27-.133t1.124-.142Zm1.4-3.2h-.808v4.209h-1.733v.725h1.733v.175h.808Zm-4.155.33a2.582,2.582,0,0,0-1.477.376,1.242,1.242,0,0,0,0,2.064,3.082,3.082,0,0,0,2.953,0,1.242,1.242,0,0,0,0-2.064,2.577,2.577,0,0,0-1.477-.376" transform="translate(-33.854 -10.563)" fill="#fff"/>
      <path id="패스_8" data-name="패스 8" d="M160.891,50.848h-7.614v.734h7.614Zm-2.174-3.284a4.159,4.159,0,0,1-.807-.881,1.65,1.65,0,0,1-.331-.843c.018-.141.034-.263.046-.368s.021-.225.028-.366l-.9-.1a2.682,2.682,0,0,1-.358,1.518,3.9,3.9,0,0,1-.724.885,7,7,0,0,1-.85.592,7.973,7.973,0,0,1-1.325.61l.651.623c.24-.1.514-.235.827-.394a6.016,6.016,0,0,0,.852-.523,5.3,5.3,0,0,0,.656-.582,5.437,5.437,0,0,0,.656-.83,3.815,3.815,0,0,0,.477.661,5.1,5.1,0,0,0,.652.614,5.53,5.53,0,0,0,.971.633,7.478,7.478,0,0,0,1.009.413l.515-.651a4.6,4.6,0,0,1-1.147-.436,5.437,5.437,0,0,1-.9-.573" transform="translate(-36.602 -10.747)" fill="#fff"/>
      <path id="패스_9" data-name="패스 9" d="M117.323,11.8h-5.259v.623h5.259Zm-3.26,1.991L114,12.626l-.728.065.163,1.1H112.16v.623h2.185v.77h-2.995v.623h6.717v-.623h-3.011v-.77h2.169v-.623h-1.165l.267-1.035-.712-.146-.187,1.181Zm3.237,4.16h-4.216V16.316h-.7V18.6h4.92Z" transform="translate(-26.59 -2.818)" fill="#fff"/>
      <path id="패스_10" data-name="패스 10" d="M123.642,16.924a.844.844,0,0,1-.809-.647,4.2,4.2,0,0,1,0-2.82.825.825,0,0,1,1.61,0,4.229,4.229,0,0,1,0,2.82.841.841,0,0,1-.8.647m3.86-5.39h-.7v7.2h.7Zm-3.86.632a1.413,1.413,0,0,0-1.319.8,3.92,3.92,0,0,0-.438,1.9,3.914,3.914,0,0,0,.438,1.9,1.479,1.479,0,0,0,2.634,0,3.948,3.948,0,0,0,.433-1.9,3.954,3.954,0,0,0-.433-1.9,1.4,1.4,0,0,0-1.315-.8" transform="translate(-29.106 -2.754)" fill="#fff"/>
      <path id="패스_11" data-name="패스 11" d="M138.361,15.091h-6.717v.648l1.821.008v3.027h.7V15.746l1.683-.008v3.027h.712V15.739h1.8Zm-1.95-1.917a6.382,6.382,0,0,1-.647-.5,1.365,1.365,0,0,1-.381-.486.491.491,0,0,1,.005-.222c.018-.1.039-.19.06-.272l-.76-.072a1.321,1.321,0,0,1-.345,1,5.22,5.22,0,0,1-.684.627,5.107,5.107,0,0,1-.646.376,4.983,4.983,0,0,1-.939.36l.639.518a4.92,4.92,0,0,0,.636-.266,6.22,6.22,0,0,0,.643-.381,3.681,3.681,0,0,0,.527-.413c.118-.119.283-.3.493-.559a7.017,7.017,0,0,0,.655.583c.167.124.343.243.526.355a5.95,5.95,0,0,0,.675.349,4.883,4.883,0,0,0,.757.259l.453-.575a3.142,3.142,0,0,1-.922-.267,5.126,5.126,0,0,1-.745-.413" transform="translate(-31.436 -2.775)" fill="#fff"/>
      <path id="패스_12" data-name="패스 12" d="M7.993,24.684H3.458V20.262H7.086A2.077,2.077,0,0,1,9.354,22.3c0,2.1-1.361,2.381-1.361,2.381m-.227-7.426H0V34.32H3.458V27.745H8.447a5.014,5.014,0,0,0,4.477-5.385,4.754,4.754,0,0,0-5.159-5.1" transform="translate(0 -4.121)" fill="#fff"/>
      <path id="패스_13" data-name="패스 13" d="M40.091,33.065h0A3.392,3.392,0,0,1,37,29.436a3.391,3.391,0,0,1,3.09-3.627,3.39,3.39,0,0,1,3.089,3.627,3.392,3.392,0,0,1-3.089,3.629m.142-10.148a6.609,6.609,0,1,0,6.349,6.6,6.481,6.481,0,0,0-6.349-6.6" transform="translate(-8.091 -5.472)" fill="#fff"/>
      <path id="패스_14" data-name="패스 14" d="M74.876,28.1h0a2.888,2.888,0,0,0-.907-2,2.327,2.327,0,0,0-1.51-.525,2.188,2.188,0,0,0-1.682.672,3.136,3.136,0,0,0-.734,1.848ZM78,31.859a5.151,5.151,0,0,1-2.2,3.046,5.479,5.479,0,0,1-3.085.882,5.917,5.917,0,0,1-4.271-1.471q-1.726-1.7-1.726-5.229a6.989,6.989,0,0,1,.905-3.654,5.173,5.173,0,0,1,4.855-2.52,5.44,5.44,0,0,1,3.71,1.261q1.921,1.7,1.921,5.418v.63h-8.2v.084a4.661,4.661,0,0,0,.56,1.806A2.423,2.423,0,0,0,72.718,33.2a2.24,2.24,0,0,0,1.229-.358,2.041,2.041,0,0,0,.821-.987Z" transform="translate(-15.933 -5.471)" fill="#fff"/>
      <path id="패스_15" data-name="패스 15" d="M29.474,34.319H26.252v-7.64a3.877,3.877,0,0,0-.283-1.589,1.9,1.9,0,0,0-1.85-.893,2.44,2.44,0,0,0-1.828.74,3.093,3.093,0,0,0-.74,2.177v7.2H18.329V17.254H21.55v6.117h.043a2.874,2.874,0,0,1,1.284-1.395,4.718,4.718,0,0,1,2.351-.587,4.279,4.279,0,0,1,3.026,1.067,4.122,4.122,0,0,1,1.219,3.177Z" transform="translate(-4.377 -4.12)" fill="#fff"/>
      <path id="패스_16" data-name="패스 16" d="M54.569,35.513H51.086V23.3H54.46Zm7.883,0H59.238V28.1a3.506,3.506,0,0,0-.3-1.542,1.849,1.849,0,0,0-1.78-.866,2.5,2.5,0,0,0-1.846.718,2.908,2.908,0,0,0-.739,2.114v6.993H51.355V23.3h3.1v1.8h.022a4.874,4.874,0,0,1,1.152-1.352,4.114,4.114,0,0,1,2.54-.782A4.369,4.369,0,0,1,61.213,24a3.907,3.907,0,0,1,1.238,3.084Z" transform="translate(-12.199 -5.483)" fill="#fff"/>
      <path id="패스_17" data-name="패스 17" d="M147.58,13.249a6.019,6.019,0,0,1,.573-5.526,6.406,6.406,0,0,1,6.122-3.205s5.866.088,5.994,6.649a5.9,5.9,0,0,1-4.209,5.994v-1.1a2.229,2.229,0,0,0-2.345-2.126c-1.866,0-2.246,1.4-2.246,2.466V26.9s.2,2.211,2.246,2.211a2.132,2.132,0,0,0,2.345-2.3V21.923A10.961,10.961,0,0,0,164.946,10.7S164.691.006,153.863.006c0,0-9.706-.6-11.194,9.5a11.812,11.812,0,0,0,1.02,6.674s1.233,2.467,3.656,1.617c0,0,2.212-.85.235-4.55" transform="translate(-34.043 0)" fill="#fff"/>
      <path id="패스_18" data-name="패스 18" d="M158.962,13.37a2.264,2.264,0,1,1-2.264-2.264,2.264,2.264,0,0,1,2.264,2.264" transform="translate(-36.878 -2.652)" fill="#fff"/>
      <rect id="사각형_3" data-name="사각형 3" width="3.174" height="12.131" transform="translate(63.149 18.069)" fill="#fff"/>
      <rect id="사각형_4" data-name="사각형 4" width="3.174" height="3.004" transform="translate(63.149 13.193)" fill="#fff"/>
      <path id="패스_19" data-name="패스 19" d="M95.646,26.5c-.087-.528-.245-.535-.476-.778a2.442,2.442,0,0,0-1.71-.491,2.506,2.506,0,0,0-1.646.406,1.012,1.012,0,0,0-.324.812q0,.514.779.813a10.228,10.228,0,0,0,1.861.492,12.047,12.047,0,0,1,3.313,1.028,2.948,2.948,0,0,1,1.688,2.738,3.751,3.751,0,0,1-1.949,3.509,6.685,6.685,0,0,1-3.4.813,7.488,7.488,0,0,1-3.961-.942A3.353,3.353,0,0,1,87.9,31.8H91.23a1.062,1.062,0,0,0,.564,1.025,3.29,3.29,0,0,0,2.1.536,2.5,2.5,0,0,0,1.646-.471,1.07,1.07,0,0,0,.433-.834q0-.578-.823-.92a14.636,14.636,0,0,0-1.927-.492,12.225,12.225,0,0,1-3.247-1.006A2.965,2.965,0,0,1,88.351,26.9a3.92,3.92,0,0,1,1.039-2.781,5.111,5.111,0,0,1,3.919-1.391,7.147,7.147,0,0,1,3.527.748A3.339,3.339,0,0,1,98.785,26.5Z" transform="translate(-20.989 -5.427)" fill="#fff"/>
      <path id="패스_20" data-name="패스 20" d="M110.549,26.5c-.087-.528-.245-.535-.477-.778a2.439,2.439,0,0,0-1.71-.491,2.506,2.506,0,0,0-1.646.406,1.01,1.01,0,0,0-.324.812q0,.514.779.813a10.209,10.209,0,0,0,1.861.492,12.066,12.066,0,0,1,3.313,1.028,2.948,2.948,0,0,1,1.688,2.738,3.753,3.753,0,0,1-1.949,3.509,6.682,6.682,0,0,1-3.4.813,7.486,7.486,0,0,1-3.961-.942,3.355,3.355,0,0,1-1.927-3.1h3.334a1.062,1.062,0,0,0,.563,1.025,3.292,3.292,0,0,0,2.1.536,2.5,2.5,0,0,0,1.646-.471,1.073,1.073,0,0,0,.433-.834q0-.578-.823-.92a14.671,14.671,0,0,0-1.927-.492,12.206,12.206,0,0,1-3.247-1.006,2.966,2.966,0,0,1-1.624-2.739,3.918,3.918,0,0,1,1.04-2.781,5.111,5.111,0,0,1,3.918-1.391,7.145,7.145,0,0,1,3.527.748,3.337,3.337,0,0,1,1.949,3.024Z" transform="translate(-24.548 -5.427)" fill="#fff"/>
      <path id="패스_21" data-name="패스 21" d="M142.344,28.1h0a2.891,2.891,0,0,0-.906-2,2.325,2.325,0,0,0-1.51-.525,2.185,2.185,0,0,0-1.682.672,3.131,3.131,0,0,0-.734,1.848Zm3.129,3.759a5.153,5.153,0,0,1-2.2,3.046,5.485,5.485,0,0,1-3.086.882,5.919,5.919,0,0,1-4.272-1.471q-1.726-1.7-1.726-5.229a6.975,6.975,0,0,1,.907-3.654,5.17,5.17,0,0,1,4.854-2.52,5.44,5.44,0,0,1,3.71,1.261q1.921,1.7,1.921,5.418v.63h-8.2v.084a4.673,4.673,0,0,0,.561,1.806,2.422,2.422,0,0,0,2.244,1.093,2.241,2.241,0,0,0,1.229-.358,2.041,2.041,0,0,0,.821-.987Z" transform="translate(-32.044 -5.471)" fill="#fff"/>
      <path id="패스_22" data-name="패스 22" d="M130.034,35.715h-3.116V34.06h-.043a3.867,3.867,0,0,1-1.548,1.468,4.632,4.632,0,0,1-2.267.538,4.129,4.129,0,0,1-3.03-1.076,4.458,4.458,0,0,1-1.177-3.352V23.383h3.226v7.78a2.1,2.1,0,0,0,.719,1.8,2.374,2.374,0,0,0,1.5.414,2.341,2.341,0,0,0,1.612-.58,2.66,2.66,0,0,0,.873-2.172V23.383h3.247Z" transform="translate(-28.382 -5.584)" fill="#fff"/>
    </g>
  </g>
</svg>
