<svg id="그룹_4613" data-name="그룹 4613" xmlns="http://www.w3.org/2000/svg" xmlns:xlink="http://www.w3.org/1999/xlink" width="52" height="12.912" viewBox="0 0 52 12.912">
  <defs>
    <clipPath id="clip-path">
      <rect id="사각형_103" data-name="사각형 103" width="52" height="12.912" fill="none"/>
    </clipPath>
  </defs>
  <g id="그룹_108" data-name="그룹 108" transform="translate(0 0)" clip-path="url(#clip-path)">
    <path id="패스_1980" data-name="패스 1980" d="M0,12.159H3.671a5.01,5.01,0,0,1,1.468.2,3.21,3.21,0,0,1,1.126.587,2.577,2.577,0,0,1,.716.948,3.1,3.1,0,0,1,.251,1.272v.024a3.053,3.053,0,0,1-.275,1.334,2.731,2.731,0,0,1-.765.967,3.313,3.313,0,0,1-1.168.587,5.3,5.3,0,0,1-1.474.2H2.374v2.447H0Zm3.5,4.258a1.511,1.511,0,0,0,1-.3,1.01,1.01,0,0,0,.361-.818v-.025A1.017,1.017,0,0,0,4.5,14.43a1.577,1.577,0,0,0-1.009-.289H2.374v2.276Z" transform="translate(0 -10.173)" fill="#262626"/>
    <path id="패스_1981" data-name="패스 1981" d="M50.411,12.159h3.671a5.01,5.01,0,0,1,1.468.2,3.21,3.21,0,0,1,1.126.587,2.575,2.575,0,0,1,.716.948,3.1,3.1,0,0,1,.251,1.272v.024a3.053,3.053,0,0,1-.275,1.334,2.731,2.731,0,0,1-.765.967,3.313,3.313,0,0,1-1.168.587,5.3,5.3,0,0,1-1.474.2H52.785v2.447H50.411Zm3.5,4.258a1.511,1.511,0,0,0,1-.3,1.01,1.01,0,0,0,.361-.818v-.025a1.017,1.017,0,0,0-.361-.843,1.577,1.577,0,0,0-1.009-.289H52.785v2.276Z" transform="translate(-42.177 -10.173)" fill="#262626"/>
    <path id="패스_1982" data-name="패스 1982" d="M100.864,20.119a6.647,6.647,0,0,1-2.184-.357,5.294,5.294,0,0,1-1.829-1.071l1.321-1.582a4.358,4.358,0,0,0,2.777,1.028,1.415,1.415,0,0,0,.728-.153.481.481,0,0,0,.251-.434v-.024a.46.46,0,0,0-.061-.238.623.623,0,0,0-.226-.2,2.346,2.346,0,0,0-.441-.189q-.275-.092-.716-.189-.685-.159-1.272-.348a3.894,3.894,0,0,1-1.022-.489,2.085,2.085,0,0,1-.936-1.85V14a2.635,2.635,0,0,1,.226-1.1,2.436,2.436,0,0,1,.661-.867,3.113,3.113,0,0,1,1.046-.568,4.41,4.41,0,0,1,1.383-.2,6.157,6.157,0,0,1,1.964.289,4.952,4.952,0,0,1,1.56.855l-1.187,1.681a4.818,4.818,0,0,0-1.205-.63,3.64,3.64,0,0,0-1.193-.214,1.073,1.073,0,0,0-.642.159.472.472,0,0,0-.214.391v.025a.481.481,0,0,0,.067.256.609.609,0,0,0,.233.2,2.551,2.551,0,0,0,.453.183q.287.092.728.189a10.49,10.49,0,0,1,1.327.372,3.972,3.972,0,0,1,1.009.519,2.079,2.079,0,0,1,.636.739,2.254,2.254,0,0,1,.22,1.032v.024a2.637,2.637,0,0,1-.251,1.172,2.517,2.517,0,0,1-.7.873,3.185,3.185,0,0,1-1.089.55,4.967,4.967,0,0,1-1.419.189" transform="translate(-81.032 -9.422)" fill="#262626"/>
    <path id="패스_1983" data-name="패스 1983" d="M182.654,12.912h-21.66a2.2,2.2,0,0,1-2.2-2.2V2.2a2.2,2.2,0,0,1,2.2-2.2h21.66a2.2,2.2,0,0,1,2.2,2.2V10.71a2.2,2.2,0,0,1-2.2,2.2" transform="translate(-132.855 0)" fill="#ff5050"/>
    <path id="패스_1984" data-name="패스 1984" d="M183.56,18.939h1.926v.726a3.422,3.422,0,0,1,.3-.323,2.028,2.028,0,0,1,.357-.267,1.9,1.9,0,0,1,.443-.187,1.994,1.994,0,0,1,.548-.071,2.22,2.22,0,0,1,.92.2,2.324,2.324,0,0,1,.77.56,2.7,2.7,0,0,1,.528.888,3.348,3.348,0,0,1,.2,1.18v.02a3.421,3.421,0,0,1-.2,1.2,2.8,2.8,0,0,1-.523.9,2.239,2.239,0,0,1-1.685.761,2.171,2.171,0,0,1-.558-.066,2.144,2.144,0,0,1-.448-.171,1.745,1.745,0,0,1-.362-.252,3.414,3.414,0,0,1-.292-.3v2.28H183.56Zm2.99,3.974a1.043,1.043,0,0,0,.793-.343,1.26,1.26,0,0,0,.321-.9v-.02a1.246,1.246,0,0,0-.321-.888,1.083,1.083,0,0,0-1.225-.252,1.056,1.056,0,0,0-.352.257,1.235,1.235,0,0,0-.236.388,1.371,1.371,0,0,0-.085.494v.02a1.412,1.412,0,0,0,.085.5,1.22,1.22,0,0,0,.236.393,1.056,1.056,0,0,0,.352.257,1.034,1.034,0,0,0,.432.091" transform="translate(-153.578 -15.744)" fill="#fff"/>
    <path id="패스_1985" data-name="패스 1985" d="M226.7,24.723a2.289,2.289,0,0,1-.726-.111,1.713,1.713,0,0,1-.58-.323,1.483,1.483,0,0,1-.388-.524,1.747,1.747,0,0,1-.141-.726v-.02a1.694,1.694,0,0,1,.156-.746,1.467,1.467,0,0,1,.434-.535,1.981,1.981,0,0,1,.671-.323,3.234,3.234,0,0,1,.877-.111,3.952,3.952,0,0,1,.731.066,4.163,4.163,0,0,1,.58.146v-.091a.822.822,0,0,0-.267-.656,1.232,1.232,0,0,0-.822-.232,3.538,3.538,0,0,0-.787.081,5.16,5.16,0,0,0-.716.222l-.393-1.352a6.011,6.011,0,0,1,.983-.308,5.685,5.685,0,0,1,1.225-.116,3.938,3.938,0,0,1,1.246.172,2.1,2.1,0,0,1,.832.494,1.729,1.729,0,0,1,.449.731,3.323,3.323,0,0,1,.136,1V24.6h-1.9v-.565a2.036,2.036,0,0,1-1.6.686m.686-1.2a.971.971,0,0,0,.686-.242.849.849,0,0,0,.262-.656v-.252a1.764,1.764,0,0,0-.338-.1,2.036,2.036,0,0,0-.409-.04,1,1,0,0,0-.651.187.6.6,0,0,0-.227.489v.02a.534.534,0,0,0,.192.439.74.74,0,0,0,.484.156" transform="translate(-188.139 -15.951)" fill="#fff"/>
    <path id="패스_1986" data-name="패스 1986" d="M264.306,26.66a3.236,3.236,0,0,1-.943-.13,4.244,4.244,0,0,1-.812-.341l.6-1.334a2.293,2.293,0,0,0,.454.217,1.215,1.215,0,0,0,.383.076.63.63,0,0,0,.247-.045.478.478,0,0,0,.2-.177l-2.138-5.365H264.3l1.089,3.288,1.029-3.288h1.967l-2,5.325a6.076,6.076,0,0,1-.373.812,2.091,2.091,0,0,1-.434.55,1.564,1.564,0,0,1-.555.313,2.342,2.342,0,0,1-.716.1" transform="translate(-219.447 -16.365)" fill="#fff"/>
  </g>
</svg>
