<?xml version="1.0" encoding="UTF-8"?>
<svg id="_레이어_1" data-name="레이어_1" xmlns="http://www.w3.org/2000/svg" width="28" height="28" xmlns:x="http://ns.adobe.com/Extensibility/1.0/" version="1.1" viewBox="0 0 28 28">
  <!-- Generator: Adobe Illustrator 29.8.0, SVG Export Plug-In . SVG Version: 2.1.1 Build 160)  -->
  <path d="M-159.1,157.4c-4.6,0-8.4,3.8-8.4,8.4h0c0,.6,0,1.1.2,1.7s0,0,0,0h9.8v-9.9s0,0,0,0c-.5,0-1-.2-1.6-.2h0Z"/>
  <g>
    <path d="M12.7,22.3h2.6c.5,0,.9-.4.9-.9v-1.6c0-.5-.4-.9-.9-.9h-2.6c-.5,0-.9.4-.9.9v1.6c0,.5.4.9.9.9Z"/>
    <path d="M21.9,18.8h-2.6c-.5,0-.9.4-.9.9v1.6c0,.5.4.9.9.9h2.6c.5,0,.9-.4.9-.9v-1.6c0-.5-.4-.9-.9-.9Z"/>
    <path d="M6.1,22.3h2.6c.5,0,.9-.4.9-.9v-1.6c0-.5-.4-.9-.9-.9h-2.6c-.5,0-.9.4-.9.9v1.6c0,.5.4.9.9.9Z"/>
    <path d="M12.7,16.5h2.6c.5,0,.9-.4.9-.9v-1.6c0-.5-.4-.9-.9-.9h-2.6c-.5,0-.9.4-.9.9v1.6c0,.5.4.9.9.9Z"/>
    <path d="M6.1,16.5h2.6c.5,0,.9-.4.9-.9v-1.6c0-.5-.4-.9-.9-.9h-2.6c-.5,0-.9.4-.9.9v1.6c0,.5.4.9.9.9Z"/>
    <path d="M19.4,16.5h2.6c.5,0,.9-.4.9-.9v-1.6c0-.5-.4-.9-.9-.9h-2.6c-.5,0-.9.4-.9.9v1.6c0,.5.4.9.9.9Z"/>
    <path d="M26.7,4.7h0c-.3-.4-.8-.7-1.2-.8-.4-.1-.7-.2-1.1-.2h-2.3v-1.4c0-.6-.5-1.1-1.1-1.1h-1.6c-.6,0-1.1.5-1.1,1.1v1.4h-8.6v-1.4c0-.6-.5-1.1-1.1-1.1h-1.6c-.6,0-1.1.5-1.1,1.1v1.4h-2.3c-.9,0-1.8.4-2.4,1.1h0c-.5.6-.8,1.3-.8,2.1v16.9c0,0,0,.1,0,.2,0,1.6,1.3,2.8,2.9,3,0,0,.2,0,.3,0h21.7c1.1-.2,1.9-1,2.1-2.1v-.5h0V6.4c0-.6-.4-1.2-.8-1.7h0ZM2.6,23.7v-12.9h22.7v12.9h0c0,.5-.4,1-1,1h0s-2.1,0-2.1,0H3.7c-.6,0-1.1-.5-1.1-1.1Z"/>
  </g>
  <metadata>
    <sfw xmlns="http://ns.adobe.com/SaveForWeb/1.0/">
      <slices/>
      <sliceSourceBounds x="-165.67" y="54.13" width="194.94" height="166.31" bottomLeftOrigin="true"/>
    </sfw>
  </metadata>
</svg>