<svg xmlns="http://www.w3.org/2000/svg" xmlns:xlink="http://www.w3.org/1999/xlink" width="39.16" height="19.757" viewBox="0 0 39.16 19.757">
  <defs>
    <clipPath id="clip-path">
      <rect id="사각형_109" data-name="사각형 109" width="39.16" height="19.757" fill="none"/>
    </clipPath>
  </defs>
  <g id="그룹_4696" data-name="그룹 4696" transform="translate(0 0)">
    <g id="그룹_113" data-name="그룹 113" transform="translate(0 0)" clip-path="url(#clip-path)">
      <path id="패스_2003" data-name="패스 2003" d="M58.146,15.678c.536.675,1.138,1.333,1.618,2.07a3.318,3.318,0,0,1-.356,2.964c-2.221,3.01-6.607,2.372-8.6.921a3.239,3.239,0,0,1-1.353-3.018.653.653,0,0,1,.474-.412,18.759,18.759,0,0,1,2.346,0,.729.729,0,0,1,.488.482,1.859,1.859,0,0,0,1.889,1.307c1.029-.154,1.736-.9,1.581-1.718a.7.7,0,0,0-.382-.449,9.653,9.653,0,0,0-1.749-.518,5.712,5.712,0,0,1-4.184-2.491,3.955,3.955,0,0,1-.461-3.251c.794-2.909,3.1-4.243,6.152-3.741.662.108,1.423.333,1.9-.487.049-.085.5-.073.626.042A23.9,23.9,0,0,1,60,9.227a.685.685,0,0,1-.036.675,1.084,1.084,0,0,0-.34,1.435A3.216,3.216,0,0,1,59.464,14a11.775,11.775,0,0,1-1.318,1.677m-3.669-5.142a1.8,1.8,0,0,0-1.766,1.747A1.935,1.935,0,0,0,54.4,14.366a1.913,1.913,0,0,0,1.964-1.732,2.061,2.061,0,0,0-1.889-2.1" transform="translate(-20.912 -3.091)" fill="#0c3946"/>
      <path id="패스_2004" data-name="패스 2004" d="M7.264,2.975h3.482c.021.233.059.455.059.677,0,3.71-.014,7.42,0,11.129,0,.633-.192.9-.86.857-.706-.047-1.417-.01-2.125-.01-.131-.3-.238-.555-.359-.84a1.347,1.347,0,0,0-.409.153C4.832,16.907.392,15.269.045,11.928a7.278,7.278,0,0,1,.8-4.253,4.975,4.975,0,0,1,4.015-1.7c.794.166,1.565.435,2.407.675Zm.021,8.2A2.162,2.162,0,0,0,5.331,8.75,2.019,2.019,0,0,0,3.407,10.9a2.325,2.325,0,0,0,2.075,2.06,1.852,1.852,0,0,0,1.8-1.785" transform="translate(0 -1.262)" fill="#0c3946"/>
      <path id="패스_2005" data-name="패스 2005" d="M29.969,8.34c.9,0,1.725-.035,2.546.022.234.016.474.278.665.472a2.23,2.23,0,0,1,.265.618c1.106-1.846,2.787-1.409,4.361-1.26.763.072,1.858,1.567,1.921,2.576.129,2.057.2,4.118.316,6.176.035.631-.2.894-.867.856-.848-.048-1.7-.012-2.658-.012,0-.795.018-1.538,0-2.28-.035-1.1-.059-2.2-.166-3.3-.059-.591-.292-1.179-1.047-1.217a1.547,1.547,0,0,0-1.664,1.252,19.2,19.2,0,0,0-.156,2.382c-.024.8-.023,1.6.005,2.4.017.476-.174.715-.645.72-.806.009-1.614.03-2.418-.017a.65.65,0,0,1-.435-.462c-.026-2.958-.02-5.916-.02-8.928" transform="translate(-12.711 -3.41)" fill="#0c3946"/>
      <path id="패스_2006" data-name="패스 2006" d="M21.3,18.014c0-3.043,0-5.951,0-8.859,0-.43.2-.587.609-.584.783.007,1.565.012,2.347,0,.422,0,.568.173.566.6q-.022,4.121,0,8.242c0,.45-.136.625-.613.609-.943-.032-1.887-.009-2.9-.009" transform="translate(-9.035 -3.636)" fill="#0c3946"/>
      <path id="패스_2007" data-name="패스 2007" d="M22.966,0a1.884,1.884,0,0,1,1.9,1.628,1.913,1.913,0,1,1-3.814.128A2.234,2.234,0,0,1,22.966,0" transform="translate(-8.927 0)" fill="#0c3946"/>
    </g>
  </g>
</svg>
