<svg xmlns="http://www.w3.org/2000/svg" xmlns:xlink="http://www.w3.org/1999/xlink" width="90.834" height="29.322" viewBox="0 0 90.834 29.322">
  <defs>
    <clipPath id="clip-path">
      <rect id="사각형_5" data-name="사각형 5" width="90.834" height="29.322" fill="none"/>
    </clipPath>
  </defs>
  <g id="그룹_7" data-name="그룹 7" transform="translate(0 0)">
    <g id="그룹_1" data-name="그룹 1" transform="translate(0 0)" clip-path="url(#clip-path)">
      <path id="패스_1" data-name="패스 1" d="M89.1,47.508a6.165,6.165,0,0,1,.172-1.464,5.279,5.279,0,0,1,.573-1.4h-.369a5.11,5.11,0,0,0-.662,1.384,5.019,5.019,0,0,0-.229,1.48,4.5,4.5,0,0,0,.242,1.5,7.687,7.687,0,0,0,.649,1.378h.369a5.389,5.389,0,0,1-.573-1.4,6.188,6.188,0,0,1-.172-1.474" transform="translate(-41.793 -21.063)" fill="#fff"/>
      <path id="패스_2" data-name="패스 2" d="M97.492,47.314H92.209v.509h2.355v2.234h.56V47.823h2.368ZM95.824,46a1.872,1.872,0,0,1-.429-.319.919.919,0,0,1-.251-.617h1.75v-.509h-4.1v.509h1.756a.917.917,0,0,1-.315.633,2.586,2.586,0,0,1-.531.379,3.2,3.2,0,0,1-.576.223,4.026,4.026,0,0,1-.614.121l.324.458q.249-.063.51-.134a3.2,3.2,0,0,0,.522-.191,3.039,3.039,0,0,0,.535-.341,1.736,1.736,0,0,0,.42-.429,1.628,1.628,0,0,0,.366.385,3.044,3.044,0,0,0,.429.29,3.367,3.367,0,0,0,.621.245,5.2,5.2,0,0,0,.614.143l.3-.484a4.364,4.364,0,0,1-.7-.127A3,3,0,0,1,95.824,46" transform="translate(-43.504 -21.022)" fill="#fff"/>
      <path id="패스_3" data-name="패스 3" d="M104.693,47.54a4.6,4.6,0,0,0-.239-1.509,7.38,7.38,0,0,0-.652-1.387h-.363a5.461,5.461,0,0,1,.579,1.416,6.207,6.207,0,0,1,.172,1.48,6.106,6.106,0,0,1-.172,1.455,5.088,5.088,0,0,1-.579,1.39h.363a4.743,4.743,0,0,0,.665-1.371,5.084,5.084,0,0,0,.226-1.474" transform="translate(-48.802 -21.063)" fill="#fff"/>
      <path id="패스_4" data-name="패스 4" d="M108.948,45.8a1.1,1.1,0,0,1-.49-.115.393.393,0,0,1-.235-.382.37.37,0,0,1,.235-.366,1.186,1.186,0,0,1,.49-.105,1.276,1.276,0,0,1,.5.105.366.366,0,0,1,.248.359.4.4,0,0,1-.248.388,1.186,1.186,0,0,1-.5.115m3.322,3.552-3.348-.006v-.369h3.265v-1.2h-3.825v.445h3.265v.344h-3.265V49.79h3.908ZM110.45,46.3q-.369.032-.77.077c-.268.03-.56.051-.878.063-.259.009-.527.018-.806.029s-.536.016-.773.016l.134.535q.311-.038.675-.07t.63-.044v.675h.541v-.713l.671-.07q.366-.038.64-.082Zm.808-1.928H110.7v2.673h-.955v.445h.955v.153h.554Zm.929-.14h-.56v3.411h.56Zm-3.239.172a1.888,1.888,0,0,0-.85.2.708.708,0,0,0-.4.694.739.739,0,0,0,.4.716,1.829,1.829,0,0,0,.856.207,1.85,1.85,0,0,0,.859-.21.737.737,0,0,0,.407-.713.707.707,0,0,0-.41-.69,1.943,1.943,0,0,0-.863-.2" transform="translate(-50.587 -20.869)" fill="#fff"/>
      <path id="패스_5" data-name="패스 5" d="M123.608,44.234h-.56V49.9h.56Zm-1.292.191h-.555v1.859h-1.126v.509h1.126v2.7h.555Zm-.98,3.341q-.357.09-.917.2a4.832,4.832,0,0,1-.821.108V45.048h-.553v3.609a11.549,11.549,0,0,0,1.374-.156q.617-.112.987-.213Z" transform="translate(-56.164 -20.869)" fill="#fff"/>
      <path id="패스_6" data-name="패스 6" d="M135.556,49.253h-5.283v.509h5.283Zm-.649-1.489h-3.3v-.738h3.119v-.471H131.6V45.9h3.208V45.39h-3.768v2.883l3.87.006Z" transform="translate(-61.462 -21.415)" fill="#fff"/>
      <path id="패스_7" data-name="패스 7" d="M143.762,45.978a1.2,1.2,0,0,1-.614-.143.443.443,0,0,1,0-.793,1.366,1.366,0,0,1,1.228,0,.443.443,0,0,1,0,.793,1.2,1.2,0,0,1-.614.143m2.89,1.935h-3.895v.509h3.335V49.9h.56Zm-.98-1.458q-.534.057-1,.111t-1.1.086q-.554.025-.913.048t-.888.016l.134.541q.554-.038.913-.067t.7-.048v.617h.56v-.681q.433-.039.882-.092t.78-.1Zm.974-2.221h-.56v2.921h-1.2v.5h1.2v.121h.56Zm-2.883.229a1.791,1.791,0,0,0-1.025.261.862.862,0,0,0,0,1.432,2.139,2.139,0,0,0,2.049,0,.862.862,0,0,0,0-1.432,1.788,1.788,0,0,0-1.025-.261" transform="translate(-66.886 -20.869)" fill="#fff"/>
      <path id="패스_8" data-name="패스 8" d="M158.56,49.059h-5.283v.509h5.283Zm-1.509-2.279a2.887,2.887,0,0,1-.56-.611,1.145,1.145,0,0,1-.23-.585c.013-.1.024-.183.032-.255s.015-.156.02-.254l-.624-.07a1.861,1.861,0,0,1-.248,1.053,2.709,2.709,0,0,1-.5.614,4.855,4.855,0,0,1-.589.411,5.532,5.532,0,0,1-.92.423l.452.433c.166-.072.357-.163.574-.274a4.175,4.175,0,0,0,.591-.363,3.676,3.676,0,0,0,.455-.4,3.773,3.773,0,0,0,.455-.576,2.647,2.647,0,0,0,.331.458,3.54,3.54,0,0,0,.452.426,3.837,3.837,0,0,0,.674.439,5.189,5.189,0,0,0,.7.286l.358-.452a3.189,3.189,0,0,1-.8-.3,3.773,3.773,0,0,1-.624-.4" transform="translate(-72.315 -21.233)" fill="#fff"/>
      <path id="패스_9" data-name="패스 9" d="M115.495,11.8h-3.649v.433h3.649Zm-2.262,1.382-.045-.809-.505.045.113.763h-.882v.432h1.516v.534h-2.078v.432h4.661v-.432h-2.089v-.534h1.5v-.432h-.809l.185-.718-.494-.1-.129.82Zm2.246,2.887h-2.926V14.934h-.489v1.584h3.414Z" transform="translate(-52.535 -5.567)" fill="#fff"/>
      <path id="패스_10" data-name="패스 10" d="M123.1,15.274a.586.586,0,0,1-.561-.449,2.917,2.917,0,0,1,0-1.957.573.573,0,0,1,1.117,0,2.934,2.934,0,0,1,0,1.957.583.583,0,0,1-.556.449m2.679-3.74h-.489v5h.489Zm-2.679.438a.98.98,0,0,0-.915.558,3.007,3.007,0,0,0,0,2.634,1.027,1.027,0,0,0,1.828,0,3.035,3.035,0,0,0,0-2.634.975.975,0,0,0-.912-.558" transform="translate(-57.505 -5.442)" fill="#fff"/>
      <path id="패스_11" data-name="패스 11" d="M136.3,14.029h-4.661v.45l1.263.005v2.1h.489v-2.1l1.168-.005v2.1h.494v-2.1H136.3ZM134.952,12.7a4.425,4.425,0,0,1-.449-.348.947.947,0,0,1-.265-.337.341.341,0,0,1,0-.154c.013-.07.027-.132.042-.189l-.528-.05a.917.917,0,0,1-.239.694,3.621,3.621,0,0,1-.474.435,3.543,3.543,0,0,1-.448.261,3.458,3.458,0,0,1-.652.25l.443.359a3.414,3.414,0,0,0,.441-.185,4.318,4.318,0,0,0,.446-.264,2.554,2.554,0,0,0,.366-.286c.082-.082.2-.211.342-.388a4.867,4.867,0,0,0,.455.4c.116.086.238.168.365.247a4.131,4.131,0,0,0,.469.242,3.388,3.388,0,0,0,.526.18l.314-.4a2.18,2.18,0,0,1-.64-.185,3.557,3.557,0,0,1-.517-.286" transform="translate(-62.109 -5.482)" fill="#fff"/>
      <path id="패스_12" data-name="패스 12" d="M5.546,22.411H2.4V19.343H4.917a1.441,1.441,0,0,1,1.574,1.416c0,1.455-.944,1.652-.944,1.652m-.157-5.153H0V29.1H2.4V24.535H5.861A3.48,3.48,0,0,0,8.968,20.8a3.3,3.3,0,0,0-3.58-3.541" transform="translate(0 -8.142)" fill="#fff"/>
      <path id="패스_13" data-name="패스 13" d="M38.191,29.958h0a2.354,2.354,0,0,1-2.144-2.518,2.353,2.353,0,0,1,2.144-2.517,2.352,2.352,0,0,1,2.143,2.517,2.353,2.353,0,0,1-2.143,2.518m.1-7.041A4.586,4.586,0,1,0,42.695,27.5a4.5,4.5,0,0,0-4.406-4.583" transform="translate(-15.986 -10.812)" fill="#fff"/>
      <path id="패스_14" data-name="패스 14" d="M72.379,26.513h0a2,2,0,0,0-.629-1.384,1.615,1.615,0,0,0-1.048-.364,1.518,1.518,0,0,0-1.167.466,2.176,2.176,0,0,0-.509,1.282Zm2.17,2.608a3.574,3.574,0,0,1-1.527,2.113,3.8,3.8,0,0,1-2.141.612,4.106,4.106,0,0,1-2.964-1.02,4.9,4.9,0,0,1-1.2-3.629,4.85,4.85,0,0,1,.628-2.535,3.59,3.59,0,0,1,3.369-1.749,3.775,3.775,0,0,1,2.574.875,4.781,4.781,0,0,1,1.333,3.76v.437H68.936v.058a3.235,3.235,0,0,0,.389,1.253,1.681,1.681,0,0,0,1.557.758,1.554,1.554,0,0,0,.853-.248,1.416,1.416,0,0,0,.569-.685Z" transform="translate(-31.478 -10.81)" fill="#fff"/>
      <path id="패스_15" data-name="패스 15" d="M26.062,29.1H23.827v-5.3a2.69,2.69,0,0,0-.2-1.1,1.32,1.32,0,0,0-1.284-.62,1.693,1.693,0,0,0-1.269.513,2.146,2.146,0,0,0-.513,1.511v5H18.329V17.254h2.235V21.5h.03a1.994,1.994,0,0,1,.891-.968,3.274,3.274,0,0,1,1.632-.407,2.969,2.969,0,0,1,2.1.741,2.86,2.86,0,0,1,.846,2.2Z" transform="translate(-8.648 -8.14)" fill="#fff"/>
      <path id="패스_16" data-name="패스 16" d="M53.5,31.672H51.086V23.2h2.341Zm5.47,0h-2.23V26.525a2.433,2.433,0,0,0-.211-1.07,1.283,1.283,0,0,0-1.235-.6,1.733,1.733,0,0,0-1.281.5,2.018,2.018,0,0,0-.513,1.467v4.853h-2.23V23.2h2.154v1.246h.015a3.382,3.382,0,0,1,.8-.938A2.855,2.855,0,0,1,56,22.963a3.032,3.032,0,0,1,2.109.718,2.711,2.711,0,0,1,.859,2.14Z" transform="translate(-24.102 -10.834)" fill="#fff"/>
      <path id="패스_17" data-name="패스 17" d="M146.043,9.194a4.177,4.177,0,0,1,.4-3.835,4.445,4.445,0,0,1,4.248-2.224,4.324,4.324,0,0,1,4.159,4.614,4.1,4.1,0,0,1-2.92,4.159v-.766A1.547,1.547,0,0,0,150.3,9.666c-1.3,0-1.559.973-1.559,1.711v7.287s.139,1.534,1.559,1.534a1.479,1.479,0,0,0,1.627-1.593V15.212a7.606,7.606,0,0,0,6.166-7.788S157.917,0,150.4,0c0,0-6.735-.413-7.768,6.594a8.2,8.2,0,0,0,.708,4.631,2.129,2.129,0,0,0,2.537,1.122s1.535-.59.163-3.157" transform="translate(-67.26 0)" fill="#fff"/>
      <path id="패스_18" data-name="패스 18" d="M157.576,12.677A1.571,1.571,0,1,1,156,11.106a1.571,1.571,0,0,1,1.571,1.571" transform="translate(-72.861 -5.24)" fill="#fff"/>
      <rect id="사각형_3" data-name="사각형 3" width="2.203" height="8.417" transform="translate(43.819 12.538)" fill="#fff"/>
      <rect id="사각형_4" data-name="사각형 4" width="2.203" height="2.085" transform="translate(43.819 9.155)" fill="#fff"/>
      <path id="패스_19" data-name="패스 19" d="M93.274,25.345c-.06-.366-.17-.371-.33-.54a1.694,1.694,0,0,0-1.187-.341,1.739,1.739,0,0,0-1.142.282.7.7,0,0,0-.224.564q0,.357.54.564a7.1,7.1,0,0,0,1.291.341,8.36,8.36,0,0,1,2.3.713,2.046,2.046,0,0,1,1.172,1.9,2.6,2.6,0,0,1-1.352,2.435,4.639,4.639,0,0,1-2.358.564,5.2,5.2,0,0,1-2.749-.653A2.326,2.326,0,0,1,87.9,29.023H90.21a.737.737,0,0,0,.391.711,2.283,2.283,0,0,0,1.456.372,1.737,1.737,0,0,0,1.142-.327.743.743,0,0,0,.3-.579q0-.4-.571-.638a10.157,10.157,0,0,0-1.337-.342,8.483,8.483,0,0,1-2.253-.7,2.057,2.057,0,0,1-1.126-1.9,2.72,2.72,0,0,1,.721-1.93,3.547,3.547,0,0,1,2.719-.965,4.959,4.959,0,0,1,2.448.519,2.317,2.317,0,0,1,1.352,2.1Z" transform="translate(-41.469 -10.722)" fill="#fff"/>
      <path id="패스_20" data-name="패스 20" d="M108.177,25.345c-.06-.366-.17-.371-.331-.54a1.693,1.693,0,0,0-1.186-.341,1.739,1.739,0,0,0-1.142.282.7.7,0,0,0-.224.564q0,.357.54.564a7.084,7.084,0,0,0,1.291.341,8.372,8.372,0,0,1,2.3.713,2.046,2.046,0,0,1,1.172,1.9,2.6,2.6,0,0,1-1.353,2.435,4.637,4.637,0,0,1-2.358.564,5.2,5.2,0,0,1-2.749-.653,2.328,2.328,0,0,1-1.337-2.151h2.314a.737.737,0,0,0,.391.711,2.284,2.284,0,0,0,1.456.372,1.737,1.737,0,0,0,1.142-.327.744.744,0,0,0,.3-.579q0-.4-.571-.638a10.181,10.181,0,0,0-1.337-.342,8.47,8.47,0,0,1-2.253-.7,2.058,2.058,0,0,1-1.127-1.9,2.719,2.719,0,0,1,.722-1.93,3.546,3.546,0,0,1,2.719-.965,4.958,4.958,0,0,1,2.448.519,2.316,2.316,0,0,1,1.352,2.1Z" transform="translate(-48.5 -10.722)" fill="#fff"/>
      <path id="패스_21" data-name="패스 21" d="M139.847,26.513h0a2.006,2.006,0,0,0-.629-1.384,1.614,1.614,0,0,0-1.048-.364A1.516,1.516,0,0,0,137,25.23a2.172,2.172,0,0,0-.509,1.282Zm2.171,2.608a3.575,3.575,0,0,1-1.527,2.113,3.806,3.806,0,0,1-2.141.612,4.107,4.107,0,0,1-2.964-1.02,4.9,4.9,0,0,1-1.2-3.629,4.84,4.84,0,0,1,.629-2.535,3.587,3.587,0,0,1,3.368-1.749,3.775,3.775,0,0,1,2.574.875,4.781,4.781,0,0,1,1.333,3.76v.437H136.4v.058a3.243,3.243,0,0,0,.389,1.253,1.681,1.681,0,0,0,1.557.758,1.555,1.555,0,0,0,.853-.248,1.416,1.416,0,0,0,.569-.685Z" transform="translate(-63.309 -10.81)" fill="#fff"/>
      <path id="패스_22" data-name="패스 22" d="M126.612,31.94h-2.162V30.792h-.03a2.683,2.683,0,0,1-1.074,1.019,3.214,3.214,0,0,1-1.573.373,2.865,2.865,0,0,1-2.1-.746,3.094,3.094,0,0,1-.817-2.326V23.383h2.239v5.4a1.459,1.459,0,0,0,.5,1.249,1.647,1.647,0,0,0,1.044.287,1.625,1.625,0,0,0,1.119-.4,1.846,1.846,0,0,0,.606-1.507V23.383h2.253Z" transform="translate(-56.074 -11.032)" fill="#fff"/>
    </g>
  </g>
</svg>
