<svg xmlns="http://www.w3.org/2000/svg" xmlns:xlink="http://www.w3.org/1999/xlink" width="203.498" height="80.118" viewBox="0 0 203.498 80.118">
  <defs>
    <clipPath id="clip-path">
      <rect id="사각형_233" data-name="사각형 233" width="40.196" height="40.189" fill="none"/>
    </clipPath>
    <clipPath id="clip-path-2">
      <path id="패스_2206" data-name="패스 2206" d="M19.274,40.88l3.825,14.9a20.914,20.914,0,0,0,1.843,2.123l-5.079-19.78a20.274,20.274,0,0,0-.589,2.753M20,37.66l7.213,22.2A18.715,18.715,0,0,0,28.9,60.983L20.7,35.765a18.548,18.548,0,0,0-.7,1.9m8.319,7.7-5.96-12.669c-.275.422-.535.849-.777,1.292L35.448,63.451c.49.1.989.17,1.488.224L30.965,50.983a11.012,11.012,0,0,1-2.645-5.619m5.314,7.811L39.472,63.8c.47-.007.935-.031,1.4-.066l-5.312-9.663a10.763,10.763,0,0,1-1.922-.892m5.531,1.509a10.526,10.526,0,0,1-1.4-.1l5.571,8.778c.434-.088.861-.2,1.281-.316L39.314,54.68c-.05,0-.1,0-.149,0m7.725-3.191,6.251,6.659c.3-.289.594-.583.876-.9l-6.285-6.7a10.5,10.5,0,0,1-.842.937m12.364-8.3L31.08,25.3c-.454.2-.894.418-1.332.646l10.858,6.887A11.008,11.008,0,0,1,48.39,37.78l10.855,6.887c.013-.318.022-.635.022-.957,0-.176-.009-.35-.013-.52M28.49,41.21,23.368,31.9l5.361,8.448a10.771,10.771,0,0,1,.576-1.434l-4.878-7.687L29.6,38.349a11.151,11.151,0,0,1,.729-1.131l-4.887-6.732,5.216,6.307a11.691,11.691,0,0,1,.856-.935l-5.108-6.17,5.479,5.824a11.312,11.312,0,0,1,.987-.775l-5.548-5.908,5.98,5.618a11.052,11.052,0,0,1,1.152-.641l-6.274-5.892,6.827,5.65a9.682,9.682,0,0,1,1.4-.468l-7.429-6.147,8.222,5.973a10.84,10.84,0,0,1,1.886-.178l-9.349-6.793a20.221,20.221,0,0,0-7.378,6.73L28.2,43.3a10.81,10.81,0,0,1,.287-2.087m-9.419,2.5a20.112,20.112,0,0,0,1.947,8.647l-1.9-9.97c-.027.438-.048.876-.048,1.323m1.719-8.134L31.34,62.223c.517.219,1.046.413,1.583.589L21.541,34.056c-.275.494-.522,1-.75,1.52M54.051,30.2,37.568,23.677a19.654,19.654,0,0,0-2.516.352l20.57,8.141a20.625,20.625,0,0,0-1.57-1.969M58.707,39,32.666,24.689c-.517.178-1.03.373-1.527.587L59.03,40.612c-.084-.542-.194-1.08-.323-1.61m-1.585-4.325L34.68,24.119c-.632.142-1.247.318-1.849.515L57.9,36.431a18.942,18.942,0,0,0-.781-1.753M39.165,23.607c-.183,0-.366.009-.549.014l12.807,4.162a19.992,19.992,0,0,0-12.258-4.176M49.919,45.9l7.509,6.215q.272-.6.51-1.211l-7.82-6.474a11.5,11.5,0,0,1-.2,1.47m-1.132,3.089,6.768,6.355c.246-.343.481-.7.707-1.057L49.35,47.79a12.3,12.3,0,0,1-.564,1.2m1.253-6.736,8.645,6.274c.106-.442.2-.9.278-1.344l-9.338-6.791a10.9,10.9,0,0,1,.415,1.861M44.37,53.368l5.88,7.107c.35-.233.695-.477,1.03-.725L45.449,52.7a11.617,11.617,0,0,1-1.079.668m-3.053,1.1,5.643,7.77c.393-.165.781-.345,1.161-.535l-5.508-7.577a11.346,11.346,0,0,1-1.3.343" transform="translate(-19.071 -23.607)" fill="none"/>
    </clipPath>
    <linearGradient id="linear-gradient" x1="-0.456" y1="1.607" x2="-0.424" y2="1.607" gradientUnits="objectBoundingBox">
      <stop offset="0" stop-color="#0080c6"/>
      <stop offset="1" stop-color="#00378a"/>
    </linearGradient>
    <clipPath id="clip-path-3">
      <rect id="사각형_235" data-name="사각형 235" width="20.095" height="60.193" fill="none"/>
    </clipPath>
    <clipPath id="clip-path-4">
      <path id="패스_2207" data-name="패스 2207" d="M41.241,43.441l9.125,19.951V60.367L41.241,40.422Zm0-8.051,9.125,23.644V55.547L41.241,31.9Zm7.608-11.783,1.517,6.65v-6.65ZM30.271,83.8a20.372,20.372,0,0,0,5.1-.659l-5.1-.574Zm10.97-21.857L48.359,70.9l-7.118-7.915v.7c0,.375-.02.748-.056,1.113l6.24,6.944L41.084,65.5a11.229,11.229,0,0,1-.334,1.427l5.788,5.709-5.959-5.2a11.313,11.313,0,0,1-.526,1.208l5.666,4.945-5.883-4.537a10.867,10.867,0,0,1-.68,1.061l5.788,4.467-6.052-4.112a10.806,10.806,0,0,1-.836.948l6.187,4.205-6.524-3.875a11.744,11.744,0,0,1-1.036.845L43.6,76.7,36.23,72.9a10.826,10.826,0,0,1-1.319.734l8.114,4.171-8.809-3.875a11.617,11.617,0,0,1-1.886.542l10.192,4.487L30.874,74.652c-.2.014-.4.022-.6.022v1.093l11.644,4.307A20.172,20.172,0,0,0,49.321,70.1l-8.08-10.171Zm0-38.336v.747l9.125,28.7V48.908l-8.042-25.3Zm3.911,0,5.214,20.661V39.133L46.447,23.607ZM30.271,79.912l8.475,2.01c.578-.271,1.141-.565,1.691-.888L30.271,78.62Zm0-2.035,10.261,3.1c.468-.275.928-.576,1.373-.894L30.271,76.565Zm0,4.013,5.892,1.025a19.616,19.616,0,0,0,2.312-.87l-8.2-1.429ZM41.241,49.61l8.943,16.781a20.233,20.233,0,0,0,.172-2.342L41.241,46.941Zm0,4.918,8.55,13.936c.149-.6.266-1.2.357-1.82l-8.907-14.52Zm0,4.026,8.08,11.542c.169-.506.321-1.018.452-1.544L41.241,56.367Z" transform="translate(-30.271 -23.607)" fill="none"/>
    </clipPath>
    <linearGradient id="linear-gradient-2" x1="-2.704" y1="1.379" x2="-2.614" y2="1.379" xlink:href="#linear-gradient"/>
    <clipPath id="clip-path-5">
      <rect id="사각형_237" data-name="사각형 237" width="40.189" height="40.2" fill="none"/>
    </clipPath>
    <clipPath id="clip-path-6">
      <path id="패스_2208" data-name="패스 2208" d="M60.542,63.6l14.9-3.826a20.5,20.5,0,0,0,2.125-1.838L57.785,63.016a20.82,20.82,0,0,0,2.757.587m-3.223-.723,22.207-7.217c.4-.542.772-1.106,1.116-1.683L55.427,62.173c.614.264,1.247.5,1.892.707m7.7-8.326L52.352,60.516c.422.275.847.538,1.29.781l29.47-13.866c.092-.494.17-.993.226-1.5l-12.7,5.98a10.955,10.955,0,0,1-5.621,2.64m7.814-5.309L83.455,43.4c-.007-.467-.029-.931-.068-1.389l-9.663,5.305a11.386,11.386,0,0,1-.89,1.928M74.34,43.71a10.916,10.916,0,0,1-.093,1.4l8.782-5.576q-.143-.649-.319-1.28l-8.373,5.305c0,.052,0,.1,0,.151m-3.188-7.725,6.659-6.246c-.293-.3-.59-.6-.9-.881l-6.693,6.287a11.137,11.137,0,0,1,.933.84m-8.3-12.364L44.968,51.8c.2.454.407.9.639,1.328L52.5,42.274a11,11,0,0,1,4.941-7.789l6.886-10.853c-.314-.013-.635-.025-.955-.025-.176,0-.348.009-.52.014M60.87,54.393l-9.313,5.119L60,54.148a11.77,11.77,0,0,1-1.434-.574l-7.687,4.876,7.123-5.178a12.387,12.387,0,0,1-1.131-.729l-6.732,4.891,6.31-5.219a9.806,9.806,0,0,1-.933-.858l-6.178,5.11,5.835-5.474A11.437,11.437,0,0,1,54.393,50l-5.9,5.551L54.1,49.568a11.208,11.208,0,0,1-.641-1.15l-5.892,6.276,5.65-6.833a10.5,10.5,0,0,1-.468-1.4L46.607,53.89l5.973-8.22a11.153,11.153,0,0,1-.179-1.892l-6.791,9.347a20.121,20.121,0,0,0,6.732,7.382l10.612-5.835a11.357,11.357,0,0,1-2.084-.28m2.5,9.414a20.012,20.012,0,0,0,8.645-1.953l-9.97,1.9c.44.029.879.048,1.325.048m-8.134-1.723,26.65-10.546c.217-.519.407-1.05.585-1.587L53.716,61.34c.492.271,1,.517,1.518.743M49.861,28.823,43.335,45.309a19.707,19.707,0,0,0,.354,2.511l8.145-20.568a21.374,21.374,0,0,0-1.972,1.57m8.8-4.656L44.349,50.205c.178.524.372,1.037.59,1.535L60.274,23.846c-.544.084-1.08.194-1.613.321m-4.325,1.585L43.773,48.192c.145.634.319,1.247.52,1.852l11.8-25.073c-.6.232-1.186.494-1.755.781M43.267,43.71c0,.185.007.368.014.553L47.44,31.454A20.013,20.013,0,0,0,43.267,43.71M65.554,32.954l6.21-7.509c-.395-.179-.8-.354-1.206-.51l-6.47,7.823a10.747,10.747,0,0,1,1.466.2m3.085,1.134,6.353-6.768c-.343-.246-.693-.479-1.054-.7l-6.493,6.908a11.331,11.331,0,0,1,1.194.564M61.9,32.832l6.28-8.638q-.665-.167-1.35-.278l-6.781,9.338a10.626,10.626,0,0,1,1.85-.422m11.12,5.677,7.109-5.883c-.233-.35-.474-.695-.727-1.028l-7.052,5.831a11.068,11.068,0,0,1,.669,1.08m1.1,3.051L81.9,35.915c-.163-.395-.346-.779-.54-1.158l-7.574,5.5a10.854,10.854,0,0,1,.343,1.3" transform="translate(-43.267 -23.607)" fill="none"/>
    </clipPath>
    <linearGradient id="linear-gradient-3" x1="-1.22" y1="1.606" x2="-1.188" y2="1.606" xlink:href="#linear-gradient"/>
    <clipPath id="clip-path-7">
      <rect id="사각형_239" data-name="사각형 239" width="9.132" height="40.096" fill="none"/>
    </clipPath>
    <clipPath id="clip-path-8">
      <path id="패스_2209" data-name="패스 2209" d="M60.571,35.21,69.7,46.7V44.681l-9.132-11.49Zm0,4.462L69.7,49.835V47.96L60.571,37.794Zm0-9.661L69.7,43.049V40.861L60.571,27.824Zm0,33.751h2.208l-2.208-.822Zm3.931-40.1,5.2,9.764V30.759l-3.778-7.095ZM60.571,43.579,69.7,52.585v-1.77l-9.132-9Zm0-19.915v.163L69.7,38.713v-2.4L61.949,23.664Zm9.085,0H68.272l1.43,3.121V23.768Zm-9.085,23.38L69.7,55.017V53.351l-9.132-7.967Zm0,15.512,3.258,1.2h3.618l-6.876-2.543Zm0-4.48,9.132,4.7V61.363l-9.132-4.7Zm0,2.3,7.687,3.385H69.7v-.734L60.571,59Zm0-4.738L69.7,61.054V59.6l-9.132-5.417Zm0-5.47L69.7,57.214v-1.59l-9.132-7.044Zm0,2.845,9.132,6.2V57.7l-9.132-6.2Z" transform="translate(-60.571 -23.664)" fill="none"/>
    </clipPath>
    <linearGradient id="linear-gradient-4" x1="-11.905" y1="2.067" x2="-11.708" y2="2.067" xlink:href="#linear-gradient"/>
    <clipPath id="clip-path-10">
      <path id="패스_2210" data-name="패스 2210" d="M91.156,23.806l-14.9,3.828a20.169,20.169,0,0,0-2.13,1.841L93.907,24.4a19.935,19.935,0,0,0-2.751-.594m3.225.73L72.174,31.753a17.745,17.745,0,0,0-1.12,1.68l25.213-8.195a19.493,19.493,0,0,0-1.886-.7m-7.7,8.319L99.34,26.893c-.416-.275-.849-.538-1.287-.779L68.585,39.984c-.1.492-.167.985-.226,1.491L81.051,35.5a11,11,0,0,1,5.625-2.642M78.86,38.17,68.242,44.012c.007.465.029.93.066,1.387l9.667-5.309a10.708,10.708,0,0,1,.885-1.92M77.354,43.7a10.774,10.774,0,0,1,.1-1.4l-8.782,5.567c.1.434.2.861.327,1.287l8.364-5.314c0-.047,0-.093,0-.142m3.188,7.717-6.657,6.257c.293.3.589.592.9.874l6.693-6.287a10.705,10.705,0,0,1-.939-.844m8.308,12.366,17.881-28.174c-.2-.45-.415-.9-.646-1.326L99.2,45.141a10.958,10.958,0,0,1-4.939,7.782l-6.888,10.86c.319.013.635.023.962.023.167,0,.345-.011.519-.018m1.98-30.768,9.311-5.115L91.7,33.266a10.607,10.607,0,0,1,1.429.576l7.689-4.88-7.127,5.176a10.341,10.341,0,0,1,1.132.732l6.734-4.891L95.242,35.2a10.508,10.508,0,0,1,.935.854l6.17-5.106L96.518,36.42c.278.312.537.646.784.985l5.9-5.542-5.614,5.977a11.853,11.853,0,0,1,.641,1.15l5.889-6.273-5.65,6.827a11.441,11.441,0,0,1,.474,1.405l6.143-7.429-5.973,8.22a11.11,11.11,0,0,1,.181,1.89l6.788-9.347a20.2,20.2,0,0,0-6.73-7.382L88.738,32.739a11.152,11.152,0,0,1,2.091.282m-2.5-9.414a20.07,20.07,0,0,0-8.649,1.947l9.966-1.9c-.436-.031-.876-.048-1.317-.048m8.128,1.718L69.814,35.872c-.221.517-.413,1.048-.589,1.585L97.981,26.073c-.494-.273-1-.519-1.522-.748m5.377,33.266,6.524-16.483a19.4,19.4,0,0,0-.354-2.52l-8.143,20.57a20.473,20.473,0,0,0,1.972-1.567m-8.805,4.656L107.348,37.2c-.178-.522-.37-1.03-.592-1.531l-15.338,27.9c.547-.084,1.084-.2,1.613-.321m4.327-1.59,10.564-22.444q-.221-.94-.52-1.849L95.6,62.44c.6-.23,1.186-.5,1.757-.784M108.432,43.7c0-.187-.009-.37-.014-.553l-4.164,12.809A20,20,0,0,0,108.432,43.7M86.143,54.457l-6.21,7.509q.592.272,1.206.508l6.47-7.822a10.875,10.875,0,0,1-1.466-.2m-3.089-1.136L76.7,60.091c.343.249.7.485,1.055.705l6.5-6.91a11.368,11.368,0,0,1-1.2-.565m6.738,1.255-6.278,8.649c.443.1.887.194,1.346.275l6.781-9.336a10.666,10.666,0,0,1-1.849.413m-11.12-5.67-7.107,5.881c.233.352.472.695.729,1.028l7.05-5.837a9.593,9.593,0,0,1-.671-1.073m-1.1-3.058L69.8,51.5c.165.391.345.781.537,1.159l7.576-5.508a12.383,12.383,0,0,1-.343-1.3" transform="translate(-68.242 -23.607)" fill="none"/>
    </clipPath>
    <linearGradient id="linear-gradient-5" x1="-2.008" y1="1.606" x2="-1.977" y2="1.606" xlink:href="#linear-gradient"/>
    <clipPath id="clip-path-11">
      <rect id="사각형_243" data-name="사각형 243" width="9.13" height="60.125" fill="none"/>
    </clipPath>
    <clipPath id="clip-path-12">
      <path id="패스_2211" data-name="패스 2211" d="M68.242,60.26,72.26,72.63h1.316L68.242,56.2Zm0-9.04,8.471,21.41h.659V70.872l-9.13-23.059ZM77.372,12.5h-9.13V23.548l9.13,7.552V29.473l-9.116-7.54,9.116,6.623V27L69,20.924l8.371,5.313V24.751l-7.709-4.894L77.372,24.1V22.662l-7.091-3.9L77.372,22.1V20.712L70.81,17.627l6.562,2.593V18.873l-6.1-2.416,6.1,1.981V17.119l-5.713-1.854,5.713,1.465v-1.3l-5.409-1.386,5.409,1.028V13.8L72.2,12.814l5.171.653ZM68.242,72.63H69.92l-1.678-4.684Zm0-27.953,9.13,19.4V61.136l-9.13-19.4Zm0-14.934,9.13,11.029V38.8l-9.13-11.038Zm0-4.383,9.13,8.574V32.212l-9.13-8.575Zm0,2.037,9.13,9.726V35.29l-9.13-9.72Zm0,8.315L77.372,50.1V47.756l-9.13-14.385Zm0-3.25,9.13,12.565V42.892l-9.13-12.565Zm0,7.219,9.13,16.605v-2.6l-9.13-16.605Z" transform="translate(-68.242 -12.505)" fill="none"/>
    </clipPath>
    <linearGradient id="linear-gradient-6" x1="-1.947" y1="2.096" x2="-1.912" y2="2.096" xlink:href="#linear-gradient"/>
    <clipPath id="clip-path-13">
      <rect id="사각형_245" data-name="사각형 245" width="40.196" height="40.191" fill="none"/>
    </clipPath>
    <clipPath id="clip-path-14">
      <path id="패스_2212" data-name="패스 2212" d="M100.038,40.887l3.825,14.9a20.375,20.375,0,0,0,1.843,2.123l-5.079-19.78a20,20,0,0,0-.589,2.757m.729-3.222,7.215,22.207c.537.395,1.1.772,1.68,1.115l-8.2-25.215c-.258.614-.494,1.244-.7,1.893m8.319,7.7L103.127,32.7c-.273.424-.54.854-.779,1.294l13.865,29.468c.49.1.989.171,1.493.221l-5.973-12.689a11.026,11.026,0,0,1-2.647-5.623m5.314,7.811L120.232,63.8c.474-.011.94-.031,1.4-.07l-5.311-9.665a10.55,10.55,0,0,1-1.92-.89m5.531,1.513a11.954,11.954,0,0,1-1.4-.1l5.573,8.773c.436-.088.863-.194,1.287-.314l-5.318-8.367c-.041,0-.093,0-.144,0m7.723-3.191,6.249,6.659c.305-.293.6-.587.881-.9l-6.285-6.7a11.308,11.308,0,0,1-.845.937m12.368-8.3L111.847,25.312c-.452.2-.894.411-1.332.644l10.853,6.887a10.972,10.972,0,0,1,7.782,4.941l10.857,6.887c.014-.318.023-.634.023-.955,0-.178-.007-.352-.009-.52m-30.768-1.981L104.135,31.9l5.357,8.448a9.626,9.626,0,0,1,.582-1.434l-4.88-7.685,5.178,7.129a10.811,10.811,0,0,1,.725-1.136l-4.885-6.73,5.216,6.3a11.927,11.927,0,0,1,.854-.933l-5.106-6.17,5.476,5.826c.314-.273.641-.535.984-.777l-5.548-5.907,5.987,5.616a10.782,10.782,0,0,1,1.149-.641l-6.274-5.889,6.825,5.645a10.554,10.554,0,0,1,1.405-.463l-7.425-6.151,8.22,5.973a11.043,11.043,0,0,1,1.89-.179l-9.349-6.788a20.152,20.152,0,0,0-7.382,6.729L108.967,43.3a10.934,10.934,0,0,1,.287-2.086m-9.419,2.5a20.1,20.1,0,0,0,1.949,8.647l-1.9-9.973c-.031.44-.052.878-.052,1.326m1.718-8.134L112.1,62.23c.515.215,1.048.407,1.585.587L102.3,34.059q-.4.743-.75,1.522m33.266-5.375L118.334,23.68a20.093,20.093,0,0,0-2.514.355l20.566,8.137a21.028,21.028,0,0,0-1.567-1.967m4.656,8.8L113.429,24.692c-.515.178-1.023.372-1.527.59l27.892,15.333c-.084-.54-.194-1.079-.319-1.606m-1.588-4.325L115.44,24.122c-.619.145-1.24.319-1.843.517l25.071,11.8a18.065,18.065,0,0,0-.783-1.752M119.931,23.612c-.185,0-.372.009-.553.014l12.811,4.16a20,20,0,0,0-12.258-4.175M130.685,45.9l7.506,6.215c.187-.395.354-.8.512-1.21l-7.82-6.474a12.311,12.311,0,0,1-.2,1.468m-1.134,3.089,6.772,6.357c.242-.345.481-.7.705-1.057l-6.913-6.493a11.5,11.5,0,0,1-.564,1.194m1.255-6.736,8.64,6.276c.109-.442.2-.894.28-1.346l-9.335-6.786a10.824,10.824,0,0,1,.415,1.856m-5.668,11.12,5.878,7.107c.346-.233.691-.477,1.03-.725l-5.837-7.046a12.557,12.557,0,0,1-1.071.664m-3.058,1.1,5.648,7.773c.393-.165.781-.348,1.159-.54l-5.51-7.576a10.836,10.836,0,0,1-1.3.343" transform="translate(-99.835 -23.612)" fill="none"/>
    </clipPath>
    <linearGradient id="linear-gradient-7" x1="-3.006" y1="1.606" x2="-2.974" y2="1.606" xlink:href="#linear-gradient"/>
    <clipPath id="clip-path-15">
      <rect id="사각형_247" data-name="사각형 247" width="9.232" height="40.563" fill="none"/>
    </clipPath>
    <clipPath id="clip-path-16">
      <path id="패스_2213" data-name="패스 2213" d="M126.319,63.967v-.056L117.087,28.87v5.372l7.834,29.725Zm0-40.562h-1.2l1.2,1.434Zm0,28.151L117.363,24.57l8.956,22.212V43.124l-7.683-19.06,7.683,16.07V36.959L119.871,23.47l6.449,11.565V32.23L121.4,23.4h-4.311V28.08L126.319,55.9Zm-9.207,12.411H118.5l-1.409-10.594V63.757Zm9.207-38.632L124.9,23.4h-1.7l3.116,4.239Zm0,3.116L123.078,23.4h-1.626l4.867,7.572Zm-3.957,35.517-5.275-26.74v7.062l3.884,19.678Z" transform="translate(-117.087 -23.405)" fill="none"/>
    </clipPath>
    <linearGradient id="linear-gradient-8" x1="-6.466" y1="2.137" x2="-6.408" y2="2.137" xlink:href="#linear-gradient"/>
    <clipPath id="clip-path-17">
      <rect id="사각형_249" data-name="사각형 249" width="9.233" height="40.563" fill="none"/>
    </clipPath>
    <clipPath id="clip-path-18">
      <path id="패스_2214" data-name="패스 2214" d="M92.686,23.4v.054L101.92,58.5V53.126L94.086,23.4Zm0,40.562h1.2l-1.2-1.432Zm0-28.151L101.644,62.8,92.686,40.588v3.656l7.689,19.064L92.686,47.239v3.17L99.14,63.9,92.686,52.338v2.805l4.923,8.823h4.311V59.293L92.686,31.476ZM101.891,23.4h-1.7l1.732,10.918V23.613Zm-9.205,38.63,1.42,1.931h1.7l-3.121-4.239Zm0-3.114,3.247,5.045h1.622L92.686,56.4ZM96.642,23.4l5.278,26.74V43.083L98.036,23.4Z" transform="translate(-92.686 -23.405)" fill="none"/>
    </clipPath>
    <linearGradient id="linear-gradient-9" x1="-5.046" y1="2.137" x2="-4.987" y2="2.137" xlink:href="#linear-gradient"/>
  </defs>
  <g id="그룹_4611" data-name="그룹 4611" transform="translate(-1441.399 -7487.682)">
    <path id="패스_2196" data-name="패스 2196" d="M19.274,40.88l3.826,14.9a20.675,20.675,0,0,0,1.841,2.123l-5.079-19.78a20.274,20.274,0,0,0-.589,2.753M20,37.66l7.215,22.2A18.979,18.979,0,0,0,28.9,60.983L20.7,35.765a18.981,18.981,0,0,0-.7,1.9m8.319,7.7-5.96-12.669c-.273.42-.533.849-.777,1.292L35.448,63.451c.49.1.989.17,1.49.224L30.965,50.983a11.012,11.012,0,0,1-2.645-5.619m5.316,7.811L39.472,63.8c.47-.007.935-.031,1.4-.066l-5.314-9.665a10.74,10.74,0,0,1-1.92-.89m5.53,1.509a10.547,10.547,0,0,1-1.4-.1l5.571,8.778c.434-.088.861-.2,1.281-.316L39.314,54.68c-.048,0-.1,0-.149,0m7.725-3.191,6.251,6.659c.3-.289.594-.583.876-.9l-6.285-6.7a10.5,10.5,0,0,1-.842.937m12.366-8.3L31.08,25.3c-.454.2-.894.416-1.33.646l10.857,6.887A11,11,0,0,1,48.39,37.78l10.855,6.887c.014-.318.022-.635.022-.957,0-.176-.007-.35-.011-.52M28.49,41.21,23.368,31.9l5.361,8.448a10.682,10.682,0,0,1,.578-1.434l-4.88-7.687L29.6,38.349a11.135,11.135,0,0,1,.727-1.131l-4.887-6.732,5.217,6.307a11.053,11.053,0,0,1,.856-.935l-5.11-6.17,5.481,5.822a11.34,11.34,0,0,1,.985-.774l-5.548-5.908,5.98,5.618a11.239,11.239,0,0,1,1.152-.641l-6.274-5.892,6.827,5.65a9.7,9.7,0,0,1,1.405-.468l-7.43-6.147,8.222,5.973a10.673,10.673,0,0,1,1.888-.178l-9.349-6.793a20.241,20.241,0,0,0-7.38,6.73L28.2,43.3a10.811,10.811,0,0,1,.287-2.086m-9.419,2.5a20.118,20.118,0,0,0,1.947,8.647l-1.9-9.97c-.027.438-.048.876-.048,1.323m1.721-8.134L31.34,62.223c.517.219,1.046.413,1.583.587L21.541,34.056c-.273.494-.522,1-.748,1.52M54.053,30.2,37.57,23.677a19.638,19.638,0,0,0-2.518.352l20.57,8.141A20.893,20.893,0,0,0,54.053,30.2M58.707,39,32.668,24.689c-.517.178-1.032.373-1.527.587L59.031,40.612Q58.9,39.8,58.707,39m-1.585-4.325L34.68,24.119c-.63.142-1.247.318-1.847.515L57.9,36.431a18.942,18.942,0,0,0-.781-1.753M39.165,23.607c-.183,0-.366.009-.547.014l12.806,4.162a19.992,19.992,0,0,0-12.258-4.176M49.921,45.9l7.507,6.213c.183-.4.352-.8.51-1.21l-7.82-6.474a11.828,11.828,0,0,1-.2,1.47m-1.132,3.089,6.766,6.355c.246-.343.483-.7.709-1.059L49.35,47.79a12.937,12.937,0,0,1-.562,1.2m1.251-6.738,8.645,6.274c.106-.441.2-.9.28-1.344l-9.34-6.79a10.921,10.921,0,0,1,.415,1.859m-5.668,11.12,5.88,7.107c.348-.233.693-.477,1.028-.725L45.449,52.7a12.241,12.241,0,0,1-1.077.668m-3.055,1.1,5.643,7.77c.393-.165.781-.345,1.161-.535l-5.506-7.577a11.476,11.476,0,0,1-1.3.343" transform="translate(1422.328 7484)" fill="#fff"/>
    <path id="패스_2197" data-name="패스 2197" d="M41.241,43.44l9.125,19.951V60.368L41.241,40.421Zm0-8.05,9.125,23.644V55.546L41.241,31.9Zm7.608-11.784,1.517,6.65v-6.65ZM30.271,83.8a20.28,20.28,0,0,0,5.1-.659l-5.1-.573Zm10.97-21.855L48.359,70.9l-7.118-7.915v.7c0,.375-.02.748-.056,1.113l6.24,6.946L41.086,65.5a10.961,10.961,0,0,1-.336,1.429l5.79,5.709-5.96-5.2a10.814,10.814,0,0,1-.526,1.208l5.666,4.946-5.883-4.537a10.316,10.316,0,0,1-.68,1.059l5.788,4.469-6.052-4.112a10.773,10.773,0,0,1-.836.948l6.187,4.205-6.522-3.875a11.44,11.44,0,0,1-1.037.844L43.6,76.7,36.23,72.9a10.565,10.565,0,0,1-1.317.734l8.114,4.173-8.81-3.877a11.44,11.44,0,0,1-1.886.542L42.522,78.96,30.876,74.653c-.2.014-.406.02-.6.02v1.095l11.644,4.306A20.157,20.157,0,0,0,49.321,70.1l-8.08-10.171Zm0-38.338v.747l9.125,28.7V48.909l-8.042-25.3Zm3.911,0,5.214,20.663V39.134L46.447,23.606ZM30.271,79.911l8.475,2.01c.58-.271,1.143-.565,1.691-.888L30.271,78.621Zm0-2.033,10.261,3.1c.47-.273.928-.574,1.373-.894L30.271,76.564Zm0,4.013,5.892,1.023a19.929,19.929,0,0,0,2.312-.869l-8.2-1.429ZM41.241,49.61,50.184,66.39a20.606,20.606,0,0,0,.174-2.34L41.241,46.94Zm0,4.918,8.552,13.936c.149-.6.266-1.2.355-1.82l-8.907-14.52Zm0,4.024L49.321,70.1c.171-.508.321-1.019.452-1.545L41.241,56.366Z" transform="translate(1431.23 7484)" fill="#fff"/>
    <path id="패스_2198" data-name="패스 2198" d="M60.542,63.6l14.9-3.826a20.5,20.5,0,0,0,2.125-1.838L57.785,63.015a20.539,20.539,0,0,0,2.757.587m-3.223-.723,22.207-7.217c.4-.54.772-1.106,1.116-1.683L55.427,62.172c.614.264,1.247.5,1.892.707m7.7-8.326L52.352,60.517c.422.273.847.537,1.29.779L83.113,47.43c.092-.494.17-.993.226-1.5l-12.7,5.98a10.952,10.952,0,0,1-5.621,2.638m7.814-5.309L83.455,43.4c-.007-.465-.029-.931-.068-1.389l-9.663,5.305a11.386,11.386,0,0,1-.89,1.928m1.506-5.535a10.944,10.944,0,0,1-.093,1.4l8.782-5.578c-.1-.433-.2-.858-.319-1.28l-8.373,5.305c0,.054,0,.1,0,.151m-3.188-7.723,6.659-6.248c-.293-.3-.59-.6-.9-.881l-6.693,6.289a10.831,10.831,0,0,1,.933.84m-8.3-12.366L44.968,51.8c.2.454.407.9.639,1.328L52.5,42.273a10.991,10.991,0,0,1,4.941-7.787l6.886-10.853c-.314-.014-.635-.027-.955-.027-.176,0-.348.009-.52.014M60.87,54.392,51.557,59.51,60,54.149a12.072,12.072,0,0,1-1.434-.576L50.882,58.45l7.123-5.178a12.01,12.01,0,0,1-1.131-.729l-6.732,4.893,6.31-5.221a9.81,9.81,0,0,1-.933-.858l-6.178,5.111,5.835-5.476A11.172,11.172,0,0,1,54.393,50l-5.9,5.551L54.1,49.567a11.208,11.208,0,0,1-.641-1.15l-5.892,6.276,5.65-6.831a10.589,10.589,0,0,1-.468-1.4l-6.145,7.427,5.973-8.22a11.135,11.135,0,0,1-.179-1.892l-6.791,9.347a20.14,20.14,0,0,0,6.732,7.384l10.612-5.835a11.513,11.513,0,0,1-2.084-.282m2.5,9.415a20.038,20.038,0,0,0,8.645-1.953l-9.97,1.9c.44.029.879.05,1.325.05m-8.134-1.723,26.65-10.546c.217-.519.407-1.05.585-1.587L53.716,61.339c.492.271,1,.519,1.518.745M49.861,28.822,43.335,45.308a19.662,19.662,0,0,0,.354,2.511l8.145-20.568a21.374,21.374,0,0,0-1.972,1.57m8.8-4.654L44.349,50.2c.178.524.372,1.039.59,1.535L60.274,23.845c-.544.086-1.08.194-1.613.323m-4.325,1.583L43.773,48.191c.145.634.319,1.249.52,1.854l11.8-25.073c-.6.232-1.186.492-1.755.779M43.267,43.709c0,.187.007.368.014.553L47.44,31.453a20.017,20.017,0,0,0-4.173,12.256M65.554,32.953l6.21-7.509c-.395-.179-.8-.354-1.206-.51l-6.47,7.825a10.472,10.472,0,0,1,1.466.194m3.085,1.134,6.353-6.768c-.343-.244-.693-.479-1.054-.7l-6.493,6.908a11.7,11.7,0,0,1,1.194.564M61.9,32.833l6.28-8.64c-.443-.109-.894-.2-1.35-.278l-6.781,9.338a10.79,10.79,0,0,1,1.85-.42m11.12,5.675,7.109-5.881c-.233-.352-.474-.695-.727-1.03l-7.052,5.831a11.286,11.286,0,0,1,.669,1.08m1.1,3.051L81.9,35.914c-.163-.393-.346-.779-.54-1.158l-7.574,5.5a10.944,10.944,0,0,1,.343,1.3" transform="translate(1441.558 7484)" fill="#fff"/>
    <path id="패스_2199" data-name="패스 2199" d="M60.571,35.21,69.7,46.7V44.681l-9.132-11.49Zm0,4.462L69.7,49.835V47.96L60.571,37.794Zm0-9.661L69.7,43.049V40.861L60.571,27.824Zm0,33.751h2.208l-2.208-.822Zm3.929-40.1,5.2,9.764V30.759l-3.78-7.095ZM60.571,43.579,69.7,52.585v-1.77l-9.132-9Zm0-19.915v.163L69.7,38.713v-2.4L61.949,23.664Zm9.085,0H68.272l1.43,3.121V23.768Zm-9.085,23.38L69.7,55.017V53.351l-9.132-7.967Zm0,15.512,3.256,1.2h3.62l-6.876-2.543Zm0-4.48,9.132,4.7V61.363l-9.132-4.7Zm0,2.3,7.687,3.383H69.7v-.734L60.571,59Zm0-4.74L69.7,61.054V59.6l-9.132-5.417Zm0-5.47L69.7,57.214v-1.59l-9.132-7.044Zm0,2.845,9.132,6.2V57.7l-9.132-6.2Z" transform="translate(1455.311 7484.045)" fill="#fff"/>
    <path id="패스_2200" data-name="패스 2200" d="M91.153,23.807l-14.9,3.826a20.4,20.4,0,0,0-2.13,1.843L93.906,24.4a19.588,19.588,0,0,0-2.753-.594m3.225.73L72.172,31.752a18.106,18.106,0,0,0-1.118,1.682l25.213-8.195a19.061,19.061,0,0,0-1.888-.7m-7.7,8.319,12.666-5.964c-.416-.273-.851-.537-1.285-.777L68.582,39.983c-.093.494-.165.985-.226,1.491L81.05,35.5a11,11,0,0,1,5.623-2.64M78.861,38.17l-10.618,5.84c.005.465.025.931.065,1.389l9.667-5.309a10.535,10.535,0,0,1,.887-1.92m-1.508,5.535a10.8,10.8,0,0,1,.1-1.4l-8.782,5.569c.1.434.2.86.327,1.287l8.365-5.314a1.251,1.251,0,0,1-.005-.142m3.186,7.716L73.882,57.68c.294.3.59.592.9.872l6.694-6.287a10.452,10.452,0,0,1-.94-.844m8.308,12.368,17.885-28.174c-.2-.45-.416-.9-.648-1.326L99.2,45.14a10.972,10.972,0,0,1-4.939,7.782l-6.89,10.86c.319.014.635.025.962.025.167,0,.346-.011.517-.018M90.828,33.02l9.309-5.113L91.7,33.265a10.848,10.848,0,0,1,1.429.576l7.687-4.878-7.125,5.176a10.063,10.063,0,0,1,1.131.732l6.734-4.893L95.242,35.2a11.057,11.057,0,0,1,.933.856l6.172-5.108-5.829,5.476c.278.312.537.644.784.985l5.9-5.542L97.589,37.84a11.871,11.871,0,0,1,.643,1.15l5.889-6.273-5.65,6.825a11.235,11.235,0,0,1,.472,1.405l6.145-7.427-5.973,8.22a10.916,10.916,0,0,1,.179,1.89l6.79-9.347a20.222,20.222,0,0,0-6.73-7.384L88.737,32.738a11.414,11.414,0,0,1,2.091.282m-2.5-9.414a20.082,20.082,0,0,0-8.647,1.947l9.965-1.9c-.438-.031-.878-.05-1.317-.05m8.128,1.718L69.813,35.871c-.221.517-.415,1.048-.589,1.585L97.982,26.072c-.5-.271-1.005-.519-1.524-.748m5.377,33.268,6.522-16.483a19.052,19.052,0,0,0-.352-2.52l-8.143,20.57a20.813,20.813,0,0,0,1.972-1.567m-8.807,4.654L107.347,37.2c-.178-.522-.368-1.032-.592-1.531l-15.336,27.9c.546-.086,1.08-.2,1.61-.323m4.329-1.588L107.92,39.213c-.144-.626-.318-1.246-.517-1.85L95.6,62.439c.6-.23,1.186-.5,1.757-.783M108.43,43.706c0-.187-.007-.37-.011-.553l-4.167,12.809a20,20,0,0,0,4.178-12.256M86.14,54.458l-6.208,7.507c.395.183.8.352,1.2.51l6.474-7.823a10.649,10.649,0,0,1-1.47-.194M83.053,53.32,76.7,60.092c.345.248.7.485,1.055.705l6.5-6.91a11.215,11.215,0,0,1-1.2-.567m6.738,1.255-6.278,8.651c.443.1.887.194,1.346.275l6.781-9.336a10.757,10.757,0,0,1-1.849.411M78.669,48.9l-7.107,5.881c.233.354.474.695.73,1.03L79.34,49.98a10.354,10.354,0,0,1-.671-1.075m-1.1-3.056L69.8,51.5c.165.391.343.783.538,1.161l7.574-5.508a12.5,12.5,0,0,1-.343-1.3" transform="translate(1461.408 7484)" fill="#fff"/>
    <path id="패스_2201" data-name="패스 2201" d="M68.242,60.26,72.26,72.63h1.316L68.242,56.2Zm0-9.038L76.713,72.63h.659V70.872l-9.13-23.059ZM77.372,12.5h-9.13V23.548l9.13,7.552V29.473l-9.116-7.54,9.116,6.623V27L69,20.924l8.371,5.313V24.751l-7.709-4.894L77.372,24.1V22.662l-7.091-3.9L77.372,22.1V20.712L70.81,17.627l6.562,2.593V18.873l-6.1-2.416,6.1,1.981V17.121l-5.713-1.856,5.713,1.465v-1.3l-5.409-1.386,5.409,1.028V13.8L72.2,12.814l5.171.653ZM68.242,72.63H69.92l-1.678-4.684Zm0-27.953,9.13,19.4V61.136l-9.13-19.4Zm0-14.934,9.13,11.029V38.8l-9.13-11.038Zm0-4.383,9.13,8.574V32.212l-9.13-8.575Zm0,2.037,9.13,9.726V35.29l-9.13-9.72Zm0,8.315L77.372,50.1V47.756l-9.13-14.385Zm0-3.249,9.13,12.563V42.892l-9.13-12.565Zm0,7.217,9.13,16.605v-2.6l-9.13-16.605Z" transform="translate(1461.408 7475.177)" fill="#fff"/>
    <path id="패스_2202" data-name="패스 2202" d="M100.039,40.887l3.823,14.9A20.811,20.811,0,0,0,105.7,57.91l-5.079-19.78a19.737,19.737,0,0,0-.587,2.757m.727-3.222,7.215,22.207c.537.395,1.1.772,1.68,1.115l-8.2-25.215c-.258.614-.5,1.244-.7,1.893m8.321,7.7L103.126,32.7c-.273.424-.54.854-.779,1.294l13.866,29.468q.732.145,1.493.221l-5.975-12.689a11.009,11.009,0,0,1-2.645-5.623m5.314,7.811L120.233,63.8c.472-.011.939-.031,1.4-.07l-5.309-9.665a10.493,10.493,0,0,1-1.92-.89m5.531,1.513a11.957,11.957,0,0,1-1.4-.1l5.573,8.773c.436-.088.863-.194,1.289-.314l-5.318-8.367c-.043,0-.1,0-.144,0m7.723-3.191,6.248,6.659c.307-.293.6-.587.881-.9l-6.287-6.7a10.663,10.663,0,0,1-.842.937m12.366-8.3L111.848,25.312c-.454.2-.894.411-1.333.644l10.853,6.887a10.972,10.972,0,0,1,7.782,4.941L140,44.67c.016-.318.025-.634.025-.955,0-.178-.005-.352-.009-.52m-30.768-1.981L104.134,31.9l5.356,8.448a9.834,9.834,0,0,1,.583-1.434L105.2,31.229l5.176,7.127a10.971,10.971,0,0,1,.725-1.134l-4.887-6.73,5.217,6.3a11.6,11.6,0,0,1,.856-.933l-5.11-6.17,5.478,5.826c.314-.273.641-.535.984-.777l-5.548-5.907,5.987,5.616a10.637,10.637,0,0,1,1.15-.641l-6.276-5.889,6.824,5.645a10.578,10.578,0,0,1,1.407-.463l-7.423-6.151,8.218,5.973a11.043,11.043,0,0,1,1.89-.179l-9.349-6.788a20.153,20.153,0,0,0-7.382,6.729L108.966,43.3a10.931,10.931,0,0,1,.287-2.086m-9.417,2.5a20.1,20.1,0,0,0,1.947,8.647l-1.9-9.973c-.034.44-.052.878-.052,1.326m1.716-8.134L112.1,62.23c.515.215,1.048.407,1.583.587L102.3,34.059q-.406.743-.752,1.522m33.266-5.375L118.333,23.68a20.113,20.113,0,0,0-2.513.355l20.566,8.137a21.647,21.647,0,0,0-1.569-1.967m4.656,8.8L113.43,24.692c-.517.178-1.025.372-1.529.59l27.892,15.333c-.086-.54-.192-1.079-.319-1.606m-1.588-4.325L115.441,24.122c-.621.145-1.242.319-1.845.517l25.069,11.8a17.623,17.623,0,0,0-.781-1.752M119.932,23.612c-.188,0-.372.009-.555.014l12.813,4.16a20.009,20.009,0,0,0-12.258-4.175M130.684,45.9l7.506,6.215c.187-.395.355-.8.513-1.21l-7.823-6.474a11.617,11.617,0,0,1-.2,1.468m-1.134,3.089,6.772,6.357c.241-.345.481-.7.705-1.059l-6.913-6.492a11.5,11.5,0,0,1-.564,1.194m1.253-6.736,8.644,6.274c.106-.44.2-.892.28-1.344l-9.336-6.786a10.822,10.822,0,0,1,.413,1.856m-5.666,11.12,5.878,7.107c.346-.233.689-.477,1.032-.725l-5.837-7.046c-.345.235-.707.463-1.073.664m-3.058,1.1,5.65,7.773c.389-.165.781-.348,1.158-.54l-5.51-7.576a10.926,10.926,0,0,1-1.3.343" transform="translate(1486.517 7484.004)" fill="#fff"/>
    <path id="패스_2203" data-name="패스 2203" d="M126.319,63.967v-.056l-9.232-35.043v5.374l7.834,29.725Zm0-40.563h-1.2l1.2,1.436Zm0,28.153-8.956-26.986,8.956,22.212V43.125l-7.683-19.06,7.683,16.07V36.96l-6.45-13.489,6.45,11.565V32.229L121.4,23.4h-4.311v4.677L126.319,55.9ZM117.11,63.967H118.5l-1.409-10.594V63.757Zm9.209-38.632L124.9,23.4h-1.7l3.116,4.241Zm0,3.116L123.076,23.4H121.45l4.869,7.574Zm-3.957,35.517-5.275-26.74V44.29l3.884,19.678Z" transform="translate(1500.228 7483.839)" fill="#fff"/>
    <path id="패스_2204" data-name="패스 2204" d="M92.687,23.4v.054L101.919,58.5V53.127L94.085,23.4Zm0,40.563h1.2l-1.2-1.432Zm0-28.153L101.643,62.8,92.687,40.587v3.656l7.687,19.064L92.687,47.238v3.17L99.141,63.9,92.687,52.337v2.807l4.921,8.823h4.311V59.292L92.687,31.475ZM101.892,23.4h-1.7l1.73,10.918V23.612ZM92.687,62.036l1.42,1.931h1.7l-3.119-4.241Zm0-3.116,3.245,5.047h1.624L92.687,56.4ZM96.641,23.4l5.278,26.742V43.082L98.035,23.4Z" transform="translate(1480.836 7483.839)" fill="#fff"/>
    <path id="패스_2205" data-name="패스 2205" d="M131.818,51.018A5.381,5.381,0,0,0,135.8,49.36a5.49,5.49,0,0,0,1.658-4.018,5.358,5.358,0,0,0-1.658-3.981,5.46,5.46,0,0,0-4.022-1.664,5.607,5.607,0,0,0-2.163.416l4.474,1.423-5.034-1.143a6.036,6.036,0,0,0-1.251.967c-.036.038-.066.075-.1.109l6.163,1.332-6.546-.9a5.747,5.747,0,0,0-.739,1.215l7.147.969-7.339-.456a5.184,5.184,0,0,0-.232,1.281l7.486.461-7.5.079a6.181,6.181,0,0,0,.162,1.294l7.357-.084-7.2.608a5.133,5.133,0,0,0,.632,1.247l6.657-.574-6.318,1.027c.117.135.235.267.363.393a5.639,5.639,0,0,0,.9.741l5.223-.883-4.692,1.2a5.61,5.61,0,0,0,2.574.6" transform="translate(1507.434 7496.788)" fill="#fff"/>
    <g id="그룹_276" data-name="그룹 276" transform="translate(1441.399 7507.606)">
      <g id="그룹_275" data-name="그룹 275" clip-path="url(#clip-path)">
        <g id="그룹_274" data-name="그룹 274" transform="translate(0 0.001)">
          <g id="그룹_273" data-name="그룹 273" clip-path="url(#clip-path-2)">
            <rect id="사각형_232" data-name="사각형 232" width="56.84" height="56.84" transform="translate(-20.094 20.094) rotate(-45)" fill="url(#linear-gradient)"/>
          </g>
        </g>
      </g>
    </g>
    <g id="그룹_281" data-name="그룹 281" transform="translate(1461.501 7507.606)">
      <g id="그룹_280" data-name="그룹 280" clip-path="url(#clip-path-3)">
        <g id="그룹_279" data-name="그룹 279" transform="translate(0 0.001)">
          <g id="그룹_278" data-name="그룹 278" clip-path="url(#clip-path-4)">
            <rect id="사각형_234" data-name="사각형 234" width="20.094" height="60.193" transform="translate(0 -0.001)" fill="url(#linear-gradient-2)"/>
          </g>
        </g>
      </g>
    </g>
    <g id="그룹_286" data-name="그룹 286" transform="translate(1484.826 7507.606)">
      <g id="그룹_285" data-name="그룹 285" clip-path="url(#clip-path-5)">
        <g id="그룹_284" data-name="그룹 284" transform="translate(0 0.001)">
          <g id="그룹_283" data-name="그룹 283" clip-path="url(#clip-path-6)">
            <rect id="사각형_236" data-name="사각형 236" width="56.843" height="56.843" transform="translate(-20.1 20.099) rotate(-45)" fill="url(#linear-gradient-3)"/>
          </g>
        </g>
      </g>
    </g>
    <g id="그룹_291" data-name="그룹 291" transform="translate(1515.883 7507.71)">
      <g id="그룹_290" data-name="그룹 290" clip-path="url(#clip-path-7)">
        <g id="그룹_289" data-name="그룹 289" transform="translate(-0.001 0)">
          <g id="그룹_288" data-name="그룹 288" clip-path="url(#clip-path-8)">
            <rect id="사각형_238" data-name="사각형 238" width="9.132" height="40.097" transform="translate(0 -0.001)" fill="url(#linear-gradient-4)"/>
          </g>
        </g>
      </g>
    </g>
    <g id="그룹_296" data-name="그룹 296" transform="translate(1529.65 7507.606)">
      <g id="그룹_295" data-name="그룹 295" clip-path="url(#clip-path-5)">
        <g id="그룹_294" data-name="그룹 294" transform="translate(0 0.001)">
          <g id="그룹_293" data-name="그룹 293" clip-path="url(#clip-path-10)">
            <rect id="사각형_240" data-name="사각형 240" width="56.844" height="56.844" transform="translate(-20.1 20.099) rotate(-45)" fill="url(#linear-gradient-5)"/>
          </g>
        </g>
      </g>
    </g>
    <g id="그룹_301" data-name="그룹 301" transform="translate(1529.65 7487.682)">
      <g id="그룹_300" data-name="그룹 300" clip-path="url(#clip-path-11)">
        <g id="그룹_299" data-name="그룹 299" transform="translate(0 0)">
          <g id="그룹_298" data-name="그룹 298" clip-path="url(#clip-path-12)">
            <rect id="사각형_242" data-name="사각형 242" width="51.927" height="45.641" transform="matrix(0.643, -0.766, 0.766, 0.643, -29.606, 35.282)" fill="url(#linear-gradient-6)"/>
          </g>
        </g>
      </g>
    </g>
    <g id="그룹_306" data-name="그룹 306" transform="translate(1586.352 7507.615)">
      <g id="그룹_305" data-name="그룹 305" clip-path="url(#clip-path-13)">
        <g id="그룹_304" data-name="그룹 304" transform="translate(0 0.001)">
          <g id="그룹_303" data-name="그룹 303" clip-path="url(#clip-path-14)">
            <rect id="사각형_244" data-name="사각형 244" width="56.841" height="56.841" transform="translate(-20.095 20.095) rotate(-45)" fill="url(#linear-gradient-7)"/>
          </g>
        </g>
      </g>
    </g>
    <g id="그룹_311" data-name="그룹 311" transform="translate(1617.315 7507.244)">
      <g id="그룹_310" data-name="그룹 310" clip-path="url(#clip-path-15)">
        <g id="그룹_309" data-name="그룹 309" transform="translate(0 0.001)">
          <g id="그룹_308" data-name="그룹 308" clip-path="url(#clip-path-16)">
            <rect id="사각형_246" data-name="사각형 246" width="30.828" height="38.522" transform="translate(-19.058 13.344) rotate(-35)" fill="url(#linear-gradient-8)"/>
          </g>
        </g>
      </g>
    </g>
    <g id="그룹_316" data-name="그룹 316" transform="translate(1573.522 7507.244)">
      <g id="그룹_315" data-name="그룹 315" clip-path="url(#clip-path-17)">
        <g id="그룹_314" data-name="그룹 314" transform="translate(-0.001 0.001)">
          <g id="그룹_313" data-name="그룹 313" clip-path="url(#clip-path-18)">
            <rect id="사각형_248" data-name="사각형 248" width="30.829" height="38.523" transform="translate(-19.058 13.344) rotate(-35)" fill="url(#linear-gradient-9)"/>
          </g>
        </g>
      </g>
    </g>
    <path id="패스_2215" data-name="패스 2215" d="M131.818,51.018A5.381,5.381,0,0,0,135.8,49.36a5.49,5.49,0,0,0,1.658-4.018,5.358,5.358,0,0,0-1.658-3.981,5.46,5.46,0,0,0-4.022-1.664,5.607,5.607,0,0,0-2.163.416l4.474,1.423-5.034-1.143a6.036,6.036,0,0,0-1.251.967c-.036.038-.066.075-.1.109l6.163,1.332-6.546-.9a5.747,5.747,0,0,0-.739,1.215l7.147.969-7.339-.456a5.184,5.184,0,0,0-.232,1.281l7.486.461-7.5.079a6.181,6.181,0,0,0,.162,1.294l7.357-.084-7.2.608a5.133,5.133,0,0,0,.632,1.247l6.657-.574-6.318,1.027c.117.135.235.267.363.393a5.639,5.639,0,0,0,.9.741l5.223-.883-4.692,1.2a5.61,5.61,0,0,0,2.574.6" transform="translate(1507.434 7496.788)" fill="#00378a"/>
  </g>
</svg>
