<svg xmlns="http://www.w3.org/2000/svg" xmlns:xlink="http://www.w3.org/1999/xlink" width="90.83" height="29.32" viewBox="0 0 90.83 29.32">
  <defs>
    <clipPath id="clip-path">
      <rect id="사각형_182" data-name="사각형 182" width="90.83" height="29.32" transform="translate(0 0)" fill="none"/>
    </clipPath>
  </defs>
  <g id="그룹_238" data-name="그룹 238" transform="translate(0 0)" clip-path="url(#clip-path)">
    <path id="패스_2090" data-name="패스 2090" d="M89.1,47.508a6.164,6.164,0,0,1,.172-1.464,5.278,5.278,0,0,1,.573-1.4h-.369a5.11,5.11,0,0,0-.662,1.384,5.019,5.019,0,0,0-.229,1.48,4.5,4.5,0,0,0,.242,1.5,7.687,7.687,0,0,0,.649,1.377h.369a5.389,5.389,0,0,1-.573-1.4,6.187,6.187,0,0,1-.172-1.474" transform="translate(-41.795 -21.064)" fill="#595757"/>
    <path id="패스_2091" data-name="패스 2091" d="M97.492,47.314H92.209v.509h2.355v2.234h.56V47.823h2.368ZM95.824,46a1.872,1.872,0,0,1-.429-.318.919.919,0,0,1-.251-.617h1.75v-.509h-4.1v.509h1.756a.917.917,0,0,1-.315.633,2.586,2.586,0,0,1-.531.379,3.2,3.2,0,0,1-.576.223,4.025,4.025,0,0,1-.614.121l.324.458q.249-.063.51-.134a3.2,3.2,0,0,0,.522-.191,3.039,3.039,0,0,0,.535-.341,1.736,1.736,0,0,0,.42-.429,1.627,1.627,0,0,0,.366.385,3.045,3.045,0,0,0,.429.29,3.367,3.367,0,0,0,.621.245,5.2,5.2,0,0,0,.614.143l.3-.484a4.364,4.364,0,0,1-.7-.127A3,3,0,0,1,95.824,46" transform="translate(-43.506 -21.024)" fill="#595757"/>
    <path id="패스_2092" data-name="패스 2092" d="M104.693,47.539a4.6,4.6,0,0,0-.239-1.508,7.38,7.38,0,0,0-.652-1.387h-.363a5.459,5.459,0,0,1,.579,1.416,6.206,6.206,0,0,1,.172,1.479,6.105,6.105,0,0,1-.172,1.455,5.087,5.087,0,0,1-.579,1.39h.363a4.743,4.743,0,0,0,.665-1.371,5.084,5.084,0,0,0,.226-1.474" transform="translate(-48.804 -21.064)" fill="#595757"/>
    <path id="패스_2093" data-name="패스 2093" d="M108.948,45.8a1.1,1.1,0,0,1-.49-.115.393.393,0,0,1-.235-.382.37.37,0,0,1,.235-.365,1.186,1.186,0,0,1,.49-.105,1.276,1.276,0,0,1,.5.105.366.366,0,0,1,.248.359.4.4,0,0,1-.248.388,1.186,1.186,0,0,1-.5.115m3.322,3.551-3.348-.006v-.369h3.265v-1.2h-3.825v.445h3.265v.344h-3.265V49.79h3.908ZM110.45,46.3q-.369.032-.77.077c-.268.03-.56.051-.878.063-.259.009-.527.018-.805.029s-.536.016-.773.016l.134.535q.311-.038.674-.07t.63-.044v.674h.541v-.713l.671-.07q.366-.038.64-.082Zm.808-1.928H110.7v2.673h-.955v.445h.955v.153h.554Zm.929-.14h-.56v3.411h.56Zm-3.239.172a1.888,1.888,0,0,0-.85.2.708.708,0,0,0-.4.693.739.739,0,0,0,.4.716,1.829,1.829,0,0,0,.856.207,1.85,1.85,0,0,0,.859-.21.737.737,0,0,0,.407-.713.707.707,0,0,0-.41-.69,1.942,1.942,0,0,0-.863-.2" transform="translate(-50.59 -20.871)" fill="#595757"/>
    <path id="패스_2094" data-name="패스 2094" d="M123.607,44.234h-.56V49.9h.56Zm-1.292.191h-.555v1.859h-1.126v.509h1.126v2.7h.555Zm-.98,3.341q-.357.09-.917.2a4.832,4.832,0,0,1-.821.108V45.048h-.553v3.608a11.549,11.549,0,0,0,1.374-.156q.617-.112.987-.213Z" transform="translate(-56.167 -20.871)" fill="#595757"/>
    <path id="패스_2095" data-name="패스 2095" d="M135.556,49.253h-5.283v.509h5.283Zm-.649-1.489h-3.3v-.738h3.118v-.471H131.6V45.9h3.208V45.39h-3.768v2.883l3.869.006Z" transform="translate(-61.465 -21.416)" fill="#595757"/>
    <path id="패스_2096" data-name="패스 2096" d="M143.762,45.978a1.2,1.2,0,0,1-.614-.143.443.443,0,0,1,0-.793,1.366,1.366,0,0,1,1.228,0,.443.443,0,0,1,0,.793,1.2,1.2,0,0,1-.614.143m2.89,1.935h-3.895v.509h3.335V49.9h.56Zm-.98-1.458q-.534.057-1,.111t-1.1.086q-.554.025-.913.048t-.888.016l.134.541q.554-.038.913-.067t.7-.048v.617h.56v-.681q.433-.039.882-.092t.78-.1Zm.974-2.221h-.56v2.921h-1.2v.5h1.2v.121h.56Zm-2.883.229a1.791,1.791,0,0,0-1.025.261.862.862,0,0,0,0,1.432,2.139,2.139,0,0,0,2.049,0,.862.862,0,0,0,0-1.432,1.788,1.788,0,0,0-1.025-.261" transform="translate(-66.89 -20.871)" fill="#595757"/>
    <path id="패스_2097" data-name="패스 2097" d="M158.56,49.059h-5.283v.509h5.283Zm-1.508-2.279a2.886,2.886,0,0,1-.56-.611,1.145,1.145,0,0,1-.23-.585c.013-.1.024-.183.032-.255s.015-.156.02-.254l-.624-.07a1.861,1.861,0,0,1-.248,1.053,2.709,2.709,0,0,1-.5.614,4.856,4.856,0,0,1-.589.411,5.534,5.534,0,0,1-.92.423l.452.433c.166-.072.357-.163.574-.274a4.175,4.175,0,0,0,.591-.363,3.675,3.675,0,0,0,.455-.4,3.773,3.773,0,0,0,.455-.576,2.647,2.647,0,0,0,.331.458,3.542,3.542,0,0,0,.452.426,3.837,3.837,0,0,0,.674.439,5.188,5.188,0,0,0,.7.286l.358-.452a3.189,3.189,0,0,1-.8-.3,3.771,3.771,0,0,1-.624-.4" transform="translate(-72.319 -21.235)" fill="#595757"/>
    <path id="패스_2098" data-name="패스 2098" d="M115.495,11.8h-3.649v.433h3.649Zm-2.262,1.382-.045-.809-.505.045.113.763h-.882v.432h1.516v.534h-2.078v.432h4.661v-.432h-2.089v-.534h1.5v-.432h-.809l.185-.718-.494-.1-.129.82Zm2.246,2.886h-2.926V14.934h-.489v1.583h3.414Z" transform="translate(-52.537 -5.568)" fill="#717071"/>
    <path id="패스_2099" data-name="패스 2099" d="M123.1,15.274a.586.586,0,0,1-.561-.449,2.917,2.917,0,0,1,0-1.957.573.573,0,0,1,1.117,0,2.934,2.934,0,0,1,0,1.957.583.583,0,0,1-.556.449m2.678-3.74h-.489v5h.489Zm-2.678.438a.98.98,0,0,0-.915.558,3.006,3.006,0,0,0,0,2.633,1.026,1.026,0,0,0,1.828,0,3.035,3.035,0,0,0,0-2.633.975.975,0,0,0-.912-.558" transform="translate(-57.507 -5.442)" fill="#717071"/>
    <path id="패스_2100" data-name="패스 2100" d="M136.3,14.028h-4.661v.449l1.263.005v2.1h.489v-2.1l1.168-.005v2.1h.494v-2.1H136.3Zm-1.353-1.33a4.428,4.428,0,0,1-.449-.348.947.947,0,0,1-.265-.337.34.34,0,0,1,0-.154c.013-.07.027-.132.042-.189l-.528-.05a.917.917,0,0,1-.239.693,3.622,3.622,0,0,1-.474.435,3.544,3.544,0,0,1-.448.261,3.458,3.458,0,0,1-.652.25l.443.359a3.413,3.413,0,0,0,.441-.185,4.316,4.316,0,0,0,.446-.264,2.556,2.556,0,0,0,.365-.286c.082-.082.2-.211.342-.388a4.871,4.871,0,0,0,.455.4c.116.086.238.168.365.247a4.13,4.13,0,0,0,.469.242,3.388,3.388,0,0,0,.526.18l.314-.4a2.18,2.18,0,0,1-.64-.185,3.558,3.558,0,0,1-.517-.286" transform="translate(-62.112 -5.483)" fill="#717071"/>
    <path id="패스_2101" data-name="패스 2101" d="M5.546,22.411H2.4V19.343H4.917A1.441,1.441,0,0,1,6.49,20.759c0,1.455-.944,1.652-.944,1.652m-.157-5.153H0V29.1H2.4V24.535H5.861A3.479,3.479,0,0,0,8.968,20.8a3.3,3.3,0,0,0-3.579-3.54" transform="translate(0 -8.143)" fill="#595757"/>
    <path id="패스_2102" data-name="패스 2102" d="M38.191,29.958h0a2.354,2.354,0,0,1-2.144-2.518,2.353,2.353,0,0,1,2.144-2.517,2.352,2.352,0,0,1,2.143,2.517,2.353,2.353,0,0,1-2.143,2.518m.1-7.041A4.586,4.586,0,1,0,42.695,27.5a4.5,4.5,0,0,0-4.406-4.583" transform="translate(-15.987 -10.813)" fill="#595757"/>
    <path id="패스_2103" data-name="패스 2103" d="M72.379,26.513h0a2,2,0,0,0-.629-1.384,1.615,1.615,0,0,0-1.048-.364,1.518,1.518,0,0,0-1.167.466,2.176,2.176,0,0,0-.509,1.282Zm2.17,2.608a3.574,3.574,0,0,1-1.527,2.113,3.8,3.8,0,0,1-2.141.612,4.106,4.106,0,0,1-2.964-1.02,4.9,4.9,0,0,1-1.2-3.629,4.849,4.849,0,0,1,.628-2.535,3.59,3.59,0,0,1,3.369-1.749,3.775,3.775,0,0,1,2.574.875,4.781,4.781,0,0,1,1.333,3.76v.437H68.936v.058a3.234,3.234,0,0,0,.389,1.253,1.681,1.681,0,0,0,1.557.758,1.554,1.554,0,0,0,.853-.248,1.416,1.416,0,0,0,.569-.685Z" transform="translate(-31.48 -10.811)" fill="#595757"/>
    <path id="패스_2104" data-name="패스 2104" d="M26.062,29.1H23.827v-5.3a2.69,2.69,0,0,0-.2-1.1,1.32,1.32,0,0,0-1.284-.62,1.693,1.693,0,0,0-1.269.513,2.146,2.146,0,0,0-.513,1.511v5H18.329V17.254h2.235V21.5h.03a1.994,1.994,0,0,1,.891-.968,3.274,3.274,0,0,1,1.632-.407,2.969,2.969,0,0,1,2.1.74,2.86,2.86,0,0,1,.846,2.2Z" transform="translate(-8.648 -8.141)" fill="#595757"/>
    <path id="패스_2105" data-name="패스 2105" d="M53.5,31.671H51.086V23.2h2.341Zm5.47,0h-2.23V26.525a2.433,2.433,0,0,0-.211-1.07,1.283,1.283,0,0,0-1.235-.6,1.733,1.733,0,0,0-1.281.5,2.018,2.018,0,0,0-.513,1.467v4.852H51.273V23.2h2.154v1.246h.015a3.382,3.382,0,0,1,.8-.938A2.855,2.855,0,0,1,56,22.963a3.032,3.032,0,0,1,2.109.718,2.711,2.711,0,0,1,.859,2.14Z" transform="translate(-24.103 -10.835)" fill="#595757"/>
    <path id="패스_2106" data-name="패스 2106" d="M146.043,9.193a4.176,4.176,0,0,1,.4-3.835,4.445,4.445,0,0,1,4.248-2.224,4.324,4.324,0,0,1,4.159,4.614,4.1,4.1,0,0,1-2.92,4.159V11.14A1.546,1.546,0,0,0,150.3,9.665c-1.3,0-1.559.973-1.559,1.711v7.286s.139,1.534,1.559,1.534a1.479,1.479,0,0,0,1.627-1.593V15.211a7.605,7.605,0,0,0,6.165-7.788S157.916,0,150.4,0c0,0-6.735-.413-7.767,6.593a8.2,8.2,0,0,0,.708,4.631,2.129,2.129,0,0,0,2.537,1.122s1.535-.59.163-3.157" transform="translate(-67.263 0)" fill="#595757"/>
    <path id="패스_2107" data-name="패스 2107" d="M157.576,12.677A1.571,1.571,0,1,1,156,11.106a1.571,1.571,0,0,1,1.571,1.571" transform="translate(-72.865 -5.24)" fill="#595757"/>
    <rect id="사각형_180" data-name="사각형 180" width="2.203" height="8.417" transform="translate(43.818 12.537)" fill="#ef8200"/>
    <rect id="사각형_181" data-name="사각형 181" width="2.203" height="2.085" transform="translate(43.818 9.154)" fill="#ef8200"/>
    <path id="패스_2108" data-name="패스 2108" d="M93.274,25.345c-.06-.366-.17-.371-.33-.54a1.694,1.694,0,0,0-1.187-.341,1.739,1.739,0,0,0-1.142.282.7.7,0,0,0-.224.564q0,.357.54.564a7.1,7.1,0,0,0,1.291.341,8.36,8.36,0,0,1,2.3.713,2.045,2.045,0,0,1,1.171,1.9,2.6,2.6,0,0,1-1.352,2.435,4.638,4.638,0,0,1-2.358.564,5.2,5.2,0,0,1-2.749-.653A2.326,2.326,0,0,1,87.9,29.022H90.21a.737.737,0,0,0,.391.711,2.283,2.283,0,0,0,1.456.372,1.737,1.737,0,0,0,1.142-.327.743.743,0,0,0,.3-.579q0-.4-.571-.638a10.156,10.156,0,0,0-1.337-.342,8.483,8.483,0,0,1-2.253-.7,2.057,2.057,0,0,1-1.126-1.9,2.72,2.72,0,0,1,.721-1.929,3.547,3.547,0,0,1,2.719-.965,4.959,4.959,0,0,1,2.448.519,2.317,2.317,0,0,1,1.352,2.1Z" transform="translate(-41.471 -10.723)" fill="#ef8200"/>
    <path id="패스_2109" data-name="패스 2109" d="M108.176,25.345c-.06-.366-.17-.371-.331-.54a1.693,1.693,0,0,0-1.186-.341,1.739,1.739,0,0,0-1.142.282.7.7,0,0,0-.224.564q0,.357.54.564a7.084,7.084,0,0,0,1.291.341,8.372,8.372,0,0,1,2.3.713,2.045,2.045,0,0,1,1.172,1.9,2.6,2.6,0,0,1-1.353,2.435,4.636,4.636,0,0,1-2.358.564,5.194,5.194,0,0,1-2.749-.653,2.328,2.328,0,0,1-1.337-2.151h2.313a.737.737,0,0,0,.391.711,2.284,2.284,0,0,0,1.456.372,1.737,1.737,0,0,0,1.142-.327.744.744,0,0,0,.3-.579q0-.4-.571-.638a10.18,10.18,0,0,0-1.337-.342,8.469,8.469,0,0,1-2.253-.7,2.058,2.058,0,0,1-1.127-1.9,2.718,2.718,0,0,1,.721-1.929,3.546,3.546,0,0,1,2.719-.965,4.958,4.958,0,0,1,2.448.519,2.316,2.316,0,0,1,1.352,2.1Z" transform="translate(-48.502 -10.723)" fill="#ef8200"/>
    <path id="패스_2110" data-name="패스 2110" d="M139.847,26.513h0a2.006,2.006,0,0,0-.629-1.384,1.614,1.614,0,0,0-1.048-.364A1.516,1.516,0,0,0,137,25.23a2.172,2.172,0,0,0-.509,1.282Zm2.171,2.608a3.575,3.575,0,0,1-1.526,2.113,3.806,3.806,0,0,1-2.141.612,4.107,4.107,0,0,1-2.964-1.02,4.895,4.895,0,0,1-1.2-3.629,4.84,4.84,0,0,1,.629-2.535,3.587,3.587,0,0,1,3.368-1.749,3.775,3.775,0,0,1,2.574.875,4.781,4.781,0,0,1,1.333,3.76v.437H136.4v.058a3.242,3.242,0,0,0,.389,1.253,1.681,1.681,0,0,0,1.557.758,1.555,1.555,0,0,0,.853-.248,1.416,1.416,0,0,0,.569-.685Z" transform="translate(-63.312 -10.811)" fill="#ef8200"/>
    <path id="패스_2111" data-name="패스 2111" d="M126.611,31.939h-2.162V30.791h-.03a2.683,2.683,0,0,1-1.074,1.019,3.214,3.214,0,0,1-1.573.373,2.865,2.865,0,0,1-2.1-.746,3.093,3.093,0,0,1-.817-2.326V23.383h2.238v5.4a1.459,1.459,0,0,0,.5,1.249,1.647,1.647,0,0,0,1.044.287,1.625,1.625,0,0,0,1.119-.4,1.846,1.846,0,0,0,.606-1.507V23.383h2.253Z" transform="translate(-56.077 -11.033)" fill="#ef8200"/>
  </g>
</svg>
