<svg xmlns="http://www.w3.org/2000/svg" xmlns:xlink="http://www.w3.org/1999/xlink" width="234.161" height="47.455" viewBox="0 0 234.161 47.455">
  <defs>
    <linearGradient id="linear-gradient" x1="0.991" y1="1.126" x2="0.338" y2="0.377" gradientUnits="objectBoundingBox">
      <stop offset="0" stop-color="#0050d3"/>
      <stop offset="0.94" stop-color="#007ffc"/>
      <stop offset="1" stop-color="#0082ff"/>
    </linearGradient>
    <linearGradient id="linear-gradient-2" x1="12.363" y1="50.346" x2="11.711" y2="49.597" xlink:href="#linear-gradient"/>
  </defs>
  <g id="confluence-logo-gradient-blue-attribution_rgb" transform="translate(-31.961 -47.869)">
    <g id="Logo_Lock-up" data-name="Logo Lock-up" transform="translate(31.961 66.022)">
      <path id="패스_2163" data-name="패스 2163" d="M142.052,117.07a13.45,13.45,0,0,1-7.025,1.574c-8.718,0-13.647-5.249-13.647-13.61,0-8.076,4.924-13.725,13.564-13.725a12.064,12.064,0,0,1,7.066,1.835v3.529a12.3,12.3,0,0,0-7.066-1.858c-6.218,0-9.93,4.13-9.93,10.214s3.836,10.136,10.136,10.136a14.9,14.9,0,0,0,6.883-1.615Z" transform="translate(-80.349 -89.53)" fill="#20385b"/>
      <path id="패스_2164" data-name="패스 2164" d="M172,115.577c0-6.057,3.552-10.457,9.609-10.457s9.531,4.4,9.531,10.457-3.515,10.554-9.531,10.554S172,121.634,172,115.577Zm3.391,0c0,3.836,1.9,7.31,6.218,7.31s6.14-3.474,6.14-7.31-1.858-7.227-6.14-7.227-6.227,3.391-6.227,7.227Z" transform="translate(-107.742 -97.003)" fill="#20385b"/>
      <path id="패스_2165" data-name="패스 2165" d="M239.651,125.712h-3.474v-12.2c0-3.634-1.455-5.249-4.763-5.249-3.212,0-5.451,2.143-5.451,6.222v11.224H222.49v-20.19h3.474v3.313a7.066,7.066,0,0,1,6.378-3.717c4.644,0,7.31,3.189,7.31,8.764Z" transform="translate(-135.064 -97.001)" fill="#20385b"/>
      <path id="패스_2166" data-name="패스 2166" d="M273.063,95.951h5.208v3.212h-5.208v16.978h-3.391V99.163H266.4V95.951h3.272V93.73c0-3.753,2.1-6.3,6.424-6.3a8.338,8.338,0,0,1,2.34.326v3.212a11.6,11.6,0,0,0-2.18-.2,2.859,2.859,0,0,0-3.189,3.07Z" transform="translate(-158.825 -87.43)" fill="#20385b"/>
      <path id="패스_2167" data-name="패스 2167" d="M305.865,116.358c-3.313,0-5.415-1.574-5.415-5.286V87.61h3.464v23.058c0,1.835,1.211,2.459,2.707,2.459a9.663,9.663,0,0,0,1.01-.037V116.2a7.342,7.342,0,0,1-1.767.161Z" transform="translate(-177.251 -87.527)" fill="#20385b"/>
      <path id="패스_2168" data-name="패스 2168" d="M322.54,106h3.474v12.2c0,3.634,1.455,5.249,4.763,5.249,3.212,0,5.451-2.143,5.451-6.222V106H339.7v20.19h-3.474v-3.313a7.067,7.067,0,0,1-6.378,3.717c-4.644,0-7.31-3.189-7.31-8.764Z" transform="translate(-189.205 -97.479)" fill="#20385b"/>
      <path id="패스_2169" data-name="패스 2169" d="M379.6,126.1c-7.548,0-10.861-4.359-10.861-10.554,0-6.1,3.391-10.457,9.531-10.457,6.218,0,8.718,4.322,8.718,10.457v1.574H372.255c.482,3.432,2.7,5.653,7.47,5.653a17.86,17.86,0,0,0,6.132-1.087l0,3.211A14.536,14.536,0,0,1,379.6,126.1Zm-7.388-11.93h11.265c-.2-3.753-1.9-5.9-5.369-5.9-3.675-.014-5.534,2.363-5.9,5.873Z" transform="translate(-214.205 -96.986)" fill="#20385b"/>
      <path id="패스_2170" data-name="패스 2170" d="M434.651,125.712h-3.474v-12.2c0-3.634-1.45-5.249-4.763-5.249-3.212,0-5.451,2.143-5.451,6.222v11.224H417.49v-20.19h3.474v3.313a7.076,7.076,0,0,1,6.378-3.717c4.644,0,7.31,3.189,7.31,8.764Z" transform="translate(-240.586 -97.001)" fill="#20385b"/>
      <path id="패스_2171" data-name="패스 2171" d="M478.262,125.157a11.244,11.244,0,0,1-4.928.918c-7.186,0-10.554-4.359-10.554-10.554,0-6.1,3.354-10.457,10.554-10.457a10.691,10.691,0,0,1,4.8.968v3.212a10.169,10.169,0,0,0-4.561-.968c-5.249,0-7.388,3.313-7.388,7.227s2.18,7.227,7.466,7.227a12.761,12.761,0,0,0,4.589-.725Z" transform="translate(-265.094 -96.969)" fill="#20385b"/>
      <path id="패스_2172" data-name="패스 2172" d="M513.361,126.1c-7.548,0-10.861-4.359-10.861-10.554,0-6.1,3.391-10.457,9.531-10.457,6.218,0,8.718,4.322,8.718,10.457v1.574H506.015c.459,3.432,2.7,5.653,7.47,5.653a17.859,17.859,0,0,0,6.133-1.087l0,3.211A14.549,14.549,0,0,1,513.361,126.1Zm-7.388-11.93h11.265c-.2-3.753-1.9-5.9-5.369-5.9-3.675-.014-5.534,2.363-5.9,5.873Z" transform="translate(-286.588 -96.986)" fill="#20385b"/>
      <path id="패스_2173" data-name="패스 2173" d="M32.984,128.405c-.3.486-.633,1.051-.895,1.5a.918.918,0,0,0,.307,1.248l5.965,3.671a.918.918,0,0,0,1.271-.312c.234-.4.541-.918.876-1.473,2.363-3.9,4.745-3.423,9.026-1.377l5.915,2.813a.918.918,0,0,0,1.234-.459l2.84-6.424a.918.918,0,0,0-.459-1.2c-1.248-.587-3.731-1.762-5.965-2.836C45.043,119.636,38.21,119.893,32.984,128.405Z" transform="translate(-31.961 -105.66)" fill="url(#linear-gradient)"/>
      <path id="패스_2174" data-name="패스 2174" d="M61.095,97.471c.3-.486.633-1.055.918-1.5a.918.918,0,0,0-.312-1.248l-5.965-3.671a.918.918,0,0,0-1.266.312c-.239.4-.546.918-.881,1.473-2.363,3.9-4.74,3.423-9.026,1.377l-5.933-2.8a.918.918,0,0,0-1.23.459L34.559,98.3a.918.918,0,0,0,.459,1.2c1.248.587,3.735,1.757,5.965,2.836C49.036,106.221,55.869,105.964,61.095,97.471Z" transform="translate(-33.325 -89.316)" fill="url(#linear-gradient-2)"/>
    </g>
    <g id="Attribution" transform="translate(75.387 47.869)">
      <path id="패스_2175" data-name="패스 2175" d="M216.148,55.152c0-1.835-1.17-2.638-3.386-3.212-1.377-.349-1.712-.647-1.712-1.11,0-.551.486-.831,1.4-.831a7.576,7.576,0,0,1,3.212.849V48.554a7.25,7.25,0,0,0-3.12-.684c-2.414,0-3.753,1.161-3.753,3.028,0,1.79,1.184,2.7,3.212,3.152,1.4.312,1.835.546,1.835,1.147,0,.459-.335.835-1.377.835a7.553,7.553,0,0,1-3.7-1.055V57.4a8.026,8.026,0,0,0,3.671.853C214.941,58.254,216.148,57.02,216.148,55.152Z" transform="translate(-171.06 -47.869)" fill="#0052cc"/>
      <path id="패스_2176" data-name="패스 2176" d="M285.28,48.185V58.28h2.166V50.589l.918,2.037,3.028,5.649h2.7V48.18h-2.143V54.7l-.831-1.881-2.441-4.63Z" transform="translate(-212.468 -48.037)" fill="#0052cc"/>
      <path id="패스_2177" data-name="패스 2177" d="M252.839,48.19H250.49V58.285h2.349Z" transform="translate(-193.642 -48.043)" fill="#0052cc"/>
      <path id="패스_2178" data-name="패스 2178" d="M169.16,48.19V58.285h4.8l.757-2.184H171.5V48.19Z" transform="translate(-149.631 -48.043)" fill="#0052cc"/>
      <path id="패스_2179" data-name="패스 2179" d="M148.43,48.19V50.4h2.6V58.28h2.345V50.4h2.79V48.19Z" transform="translate(-138.413 -48.043)" fill="#0052cc"/>
      <path id="패스_2180" data-name="패스 2180" d="M133.208,48.19h-3.093L126.6,58.285h2.684l.5-1.707a6.81,6.81,0,0,0,1.886.28,6.365,6.365,0,0,0,1.886-.28l.5,1.707h2.684Zm-1.556,6.585a4.978,4.978,0,0,1-1.294-.184l1.294-4.419,1.294,4.419a4.868,4.868,0,0,1-1.3.184Z" transform="translate(-126.6 -48.043)" fill="#0052cc"/>
      <path id="패스_2181" data-name="패스 2181" d="M189.942,48.19h-3.093L183.33,58.285h2.684l.5-1.707a6.819,6.819,0,0,0,1.891.28,6.365,6.365,0,0,0,1.886-.28l.5,1.707h2.684Zm-1.556,6.585a5.047,5.047,0,0,1-1.294-.184l1.294-4.419,1.3,4.419A5.047,5.047,0,0,1,188.387,54.775Z" transform="translate(-157.299 -48.043)" fill="#0052cc"/>
      <path id="패스_2182" data-name="패스 2182" d="M266.208,48.19h-3.093L259.6,58.285h2.684l.5-1.707a6.883,6.883,0,0,0,1.891.28,6.365,6.365,0,0,0,1.886-.28l.5,1.707h2.684Zm-1.537,6.585a4.979,4.979,0,0,1-1.294-.184l1.294-4.419,1.294,4.419a5.121,5.121,0,0,1-1.308.184Z" transform="translate(-198.571 -48.043)" fill="#0052cc"/>
      <path id="패스_2183" data-name="패스 2183" d="M236.447,55.152c0-1.835-1.17-2.638-3.386-3.212-1.377-.349-1.712-.647-1.712-1.11,0-.551.486-.831,1.377-.831a7.576,7.576,0,0,1,3.212.849V48.553a7.25,7.25,0,0,0-3.157-.684c-2.414,0-3.753,1.161-3.753,3.028,0,1.79,1.184,2.7,3.212,3.152,1.4.312,1.835.546,1.835,1.147,0,.459-.34.835-1.377.835a7.553,7.553,0,0,1-3.7-1.055V57.4a8.025,8.025,0,0,0,3.671.853C235.241,58.253,236.447,57.019,236.447,55.152Z" transform="translate(-182.013 -47.869)" fill="#0052cc"/>
    </g>
  </g>
</svg>
