<svg id="그룹_4698" data-name="그룹 4698" xmlns="http://www.w3.org/2000/svg" xmlns:xlink="http://www.w3.org/1999/xlink" width="58.032" height="13.589" viewBox="0 0 58.032 13.589">
  <defs>
    <clipPath id="clip-path">
      <rect id="사각형_102" data-name="사각형 102" width="58.032" height="13.589" fill="none"/>
    </clipPath>
  </defs>
  <g id="그룹_106" data-name="그룹 106" clip-path="url(#clip-path)">
    <path id="패스_1969" data-name="패스 1969" d="M3.543,73.883H1.533v-1.96H3.142a.921.921,0,0,1,1.005.9c0,.93-.6,1.055-.6,1.055m-.1-3.292H0v7.564H1.533V75.24H3.745A2.223,2.223,0,0,0,5.73,72.853a2.107,2.107,0,0,0-2.287-2.262" transform="translate(0 -64.767)" fill="#595757"/>
    <path id="패스_1970" data-name="패스 1970" d="M141.35,98.237h0a1.629,1.629,0,1,1,1.37-1.608,1.5,1.5,0,0,1-1.37,1.608m.063-4.5a2.93,2.93,0,1,0,2.815,2.928,2.873,2.873,0,0,0-2.815-2.928" transform="translate(-127.164 -86.006)" fill="#595757"/>
    <path id="패스_1971" data-name="패스 1971" d="M276.527,96.025h0a1.281,1.281,0,0,0-.4-.885,1.031,1.031,0,0,0-.67-.233.97.97,0,0,0-.746.3,1.392,1.392,0,0,0-.325.82Zm1.387,1.666a2.283,2.283,0,0,1-.976,1.35,2.428,2.428,0,0,1-1.368.391,2.624,2.624,0,0,1-1.894-.652,3.128,3.128,0,0,1-.765-2.318,3.1,3.1,0,0,1,.4-1.62,2.293,2.293,0,0,1,2.152-1.117,2.412,2.412,0,0,1,1.645.559,3.055,3.055,0,0,1,.851,2.4v.279h-3.634V97a2.066,2.066,0,0,0,.248.8,1.074,1.074,0,0,0,.995.484.994.994,0,0,0,.545-.158.905.905,0,0,0,.364-.438Z" transform="translate(-250.396 -85.993)" fill="#595757"/>
    <path id="패스_1972" data-name="패스 1972" d="M79.913,78.139H78.485V74.752a1.718,1.718,0,0,0-.125-.7.844.844,0,0,0-.82-.4,1.082,1.082,0,0,0-.811.328,1.372,1.372,0,0,0-.328.965v3.194H74.972V70.573H76.4v2.712h.019a1.272,1.272,0,0,1,.569-.618,2.088,2.088,0,0,1,1.042-.26,1.9,1.9,0,0,1,1.341.473,1.827,1.827,0,0,1,.54,1.409Z" transform="translate(-68.787 -64.751)" fill="#595757"/>
    <path id="패스_1973" data-name="패스 1973" d="M210.506,99.491h-1.544V94.077h1.5Zm3.495,0h-1.425V96.2a1.558,1.558,0,0,0-.135-.684.82.82,0,0,0-.789-.384,1.106,1.106,0,0,0-.818.319,1.289,1.289,0,0,0-.328.937v3.1h-1.425V94.077h1.376v.8h.01a2.164,2.164,0,0,1,.51-.6,1.824,1.824,0,0,1,1.126-.347,1.938,1.938,0,0,1,1.348.459A1.732,1.732,0,0,1,214,95.753Z" transform="translate(-191.723 -86.178)" fill="#595757"/>
    <path id="패스_1974" data-name="패스 1974" d="M585.355,5.874a2.669,2.669,0,0,1,.254-2.45A2.841,2.841,0,0,1,588.324,2a2.762,2.762,0,0,1,2.657,2.948,2.618,2.618,0,0,1-1.866,2.657v-.49a.988.988,0,0,0-1.039-.942c-.827,0-1,.622-1,1.093v4.655s.089.98,1,.98a.945.945,0,0,0,1.039-1.018V9.719a4.859,4.859,0,0,0,3.939-4.976S592.941,0,588.141,0a4.739,4.739,0,0,0-4.963,4.212,5.238,5.238,0,0,0,.453,2.959,1.36,1.36,0,0,0,1.621.717s.981-.377.1-2.017" transform="translate(-535.022 0)" fill="#595757"/>
    <path id="패스_1975" data-name="패스 1975" d="M633.7,46.43a1,1,0,1,1-1-1,1,1,0,0,1,1,1" transform="translate(-579.582 -41.678)" fill="#595757"/>
    <rect id="사각형_100" data-name="사각형 100" width="1.407" height="5.378" transform="translate(27.995 8.01)" fill="#ef8200"/>
    <rect id="사각형_101" data-name="사각형 101" width="1.407" height="1.332" transform="translate(27.995 5.849)" fill="#ef8200"/>
    <path id="패스_1976" data-name="패스 1976" d="M362.971,94.634c-.039-.234-.109-.237-.211-.345a1.081,1.081,0,0,0-.758-.218,1.112,1.112,0,0,0-.73.18.449.449,0,0,0-.144.36q0,.228.345.36a4.557,4.557,0,0,0,.825.218,5.338,5.338,0,0,1,1.469.455,1.307,1.307,0,0,1,.748,1.214,1.663,1.663,0,0,1-.864,1.556,2.964,2.964,0,0,1-1.507.361,3.321,3.321,0,0,1-1.756-.418,1.486,1.486,0,0,1-.854-1.375h1.478a.471.471,0,0,0,.25.454,1.459,1.459,0,0,0,.93.237,1.111,1.111,0,0,0,.73-.209.475.475,0,0,0,.192-.37q0-.256-.365-.408a6.514,6.514,0,0,0-.854-.218,5.419,5.419,0,0,1-1.44-.446,1.314,1.314,0,0,1-.719-1.214,1.738,1.738,0,0,1,.46-1.233,2.266,2.266,0,0,1,1.737-.617,3.169,3.169,0,0,1,1.564.332,1.48,1.48,0,0,1,.864,1.341Z" transform="translate(-329.874 -85.292)" fill="#ef8200"/>
    <path id="패스_1977" data-name="패스 1977" d="M423.926,94.634c-.039-.234-.109-.237-.211-.345a1.082,1.082,0,0,0-.758-.218,1.112,1.112,0,0,0-.73.18.448.448,0,0,0-.144.36c0,.152.115.272.345.36a4.549,4.549,0,0,0,.825.218,5.345,5.345,0,0,1,1.469.455,1.307,1.307,0,0,1,.748,1.214,1.663,1.663,0,0,1-.864,1.556,2.962,2.962,0,0,1-1.507.361,3.32,3.32,0,0,1-1.756-.418,1.487,1.487,0,0,1-.854-1.375h1.478a.471.471,0,0,0,.25.454,1.46,1.46,0,0,0,.93.237,1.11,1.11,0,0,0,.73-.209.476.476,0,0,0,.192-.37q0-.256-.365-.408a6.526,6.526,0,0,0-.854-.218,5.411,5.411,0,0,1-1.44-.446,1.314,1.314,0,0,1-.72-1.214,1.738,1.738,0,0,1,.461-1.233,2.266,2.266,0,0,1,1.737-.617,3.168,3.168,0,0,1,1.564.332,1.48,1.48,0,0,1,.864,1.341Z" transform="translate(-385.801 -85.292)" fill="#ef8200"/>
    <path id="패스_1978" data-name="패스 1978" d="M552.5,96.025h0a1.283,1.283,0,0,0-.4-.885,1.031,1.031,0,0,0-.669-.233.969.969,0,0,0-.746.3,1.39,1.39,0,0,0-.325.82Zm1.387,1.666a2.285,2.285,0,0,1-.975,1.35,2.429,2.429,0,0,1-1.368.391,2.624,2.624,0,0,1-1.894-.652,3.128,3.128,0,0,1-.765-2.318,3.093,3.093,0,0,1,.4-1.62,2.292,2.292,0,0,1,2.152-1.117,2.412,2.412,0,0,1,1.645.559,3.054,3.054,0,0,1,.851,2.4v.279H550.3V97a2.06,2.06,0,0,0,.249.8,1.073,1.073,0,0,0,.995.484,1,1,0,0,0,.545-.158.9.9,0,0,0,.364-.438Z" transform="translate(-503.6 -85.993)" fill="#ef8200"/>
    <path id="패스_1979" data-name="패스 1979" d="M491.112,101.114H489.73v-.734h-.019a1.714,1.714,0,0,1-.686.651,2.054,2.054,0,0,1-1,.239,1.83,1.83,0,0,1-1.343-.477,1.977,1.977,0,0,1-.522-1.486v-3.66h1.43V99.1a.932.932,0,0,0,.319.8,1.053,1.053,0,0,0,.667.183,1.038,1.038,0,0,0,.715-.257,1.179,1.179,0,0,0,.387-.963v-3.21h1.439Z" transform="translate(-446.047 -87.756)" fill="#ef8200"/>
  </g>
</svg>
