<svg xmlns="http://www.w3.org/2000/svg" xmlns:xlink="http://www.w3.org/1999/xlink" width="203.984" height="54.452" viewBox="0 0 203.984 54.452">
  <defs>
    <linearGradient id="linear-gradient" x1="1.086" y1="0.139" x2="0.485" y2="0.815" gradientUnits="objectBoundingBox">
      <stop offset="0.176" stop-color="#0052cc"/>
      <stop offset="1" stop-color="#2684ff"/>
    </linearGradient>
  </defs>
  <g id="그룹_323" data-name="그룹 323" transform="translate(-4253 -3150.191)">
    <g id="logo-gradient-blue-bitbucket" transform="translate(4253.009 3163.849)">
      <path id="패스_2216" data-name="패스 2216" d="M0,0H203.972V40.794H0Z" transform="translate(0.003)" fill="rgba(255,255,255,0.01)"/>
      <g id="Bitbucket" transform="translate(43.253 5.099)">
        <path id="패스_2217" data-name="패스 2217" d="M33.926,5.6H45.014c5.406,0,8.018,2.57,8.018,6.69,0,3.1-1.466,5.007-4.444,5.671,3.894.62,5.864,2.7,5.864,6.336,0,4.076-2.841,6.912-8.8,6.912H33.926Zm3.665,10.944h6.964c3.436,0,4.856-1.506,4.856-3.988S47.9,8.877,44.556,8.877H37.592Zm0,3.146v7.975h8.247c3.482,0,5.04-1.2,5.04-3.766,0-2.747-1.512-4.209-5.131-4.209Z" transform="translate(-33.926 -3.561)" fill="#253858"/>
        <path id="패스_2218" data-name="패스 2218" d="M55.222,4.521A2.225,2.225,0,0,1,57.651,6.87a2.248,2.248,0,0,1-2.428,2.348A2.225,2.225,0,0,1,52.794,6.87,2.225,2.225,0,0,1,55.222,4.521Zm-1.787,7.488h3.482V31.5H53.436Z" transform="translate(-28.741 -3.857)" fill="#253858"/>
        <path id="패스_2219" data-name="패스 2219" d="M68.493,27.632a14.845,14.845,0,0,0,2.2-.266V30.6a7.748,7.748,0,0,1-2.337.31c-4.307,0-6.414-2.437-6.414-6.07V14.385H58.688v-3.1h3.253V7.163h3.39v4.12h5.36v3.1h-5.36V24.708C65.332,26.436,66.385,27.632,68.493,27.632Z" transform="translate(-27.121 -3.131)" fill="#253858"/>
        <path id="패스_2220" data-name="패스 2220" d="M75.036,28.191V31.6H71.554V4h3.482V15.653a7.144,7.144,0,0,1,6.827-3.9c5.361,0,8.064,4.386,8.064,10.146,0,5.494-2.841,10.146-8.476,10.146A6.645,6.645,0,0,1,75.036,28.191ZM80.946,14.9c-3.116,0-5.864,1.905-5.864,6.247V22.7c0,4.342,2.52,6.247,5.5,6.247,3.894,0,5.91-2.481,5.91-7C86.444,17.2,84.52,14.9,80.946,14.9Z" transform="translate(-23.585 -4)" fill="#253858"/>
        <path id="패스_2221" data-name="패스 2221" d="M88.8,10.395h3.482V22.181c0,3.5,1.466,5.051,4.765,5.051,3.207,0,5.452-2.082,5.452-6.026V10.395h3.482v19.5H102.5V26.7a7.093,7.093,0,0,1-6.368,3.589c-4.627,0-7.285-3.1-7.285-8.463V10.395Z" transform="translate(-18.844 -2.243)" fill="#253858"/>
        <path id="패스_2222" data-name="패스 2222" d="M120.848,29.454a11.483,11.483,0,0,1-4.9.886c-7.194,0-10.538-4.209-10.538-10.19,0-5.893,3.344-10.1,10.538-10.1a10.959,10.959,0,0,1,4.81.93v3.1a10.516,10.516,0,0,0-4.536-.93c-5.223,0-7.376,3.19-7.376,7s2.2,7,7.468,7a12.624,12.624,0,0,0,4.582-.709v3.013Z" transform="translate(-14.281 -2.338)" fill="#253858"/>
        <path id="패스_2223" data-name="패스 2223" d="M120.611,31.647V4h3.482V21.28l8.66-9.127h4.536l-9.485,9.57,9.9,9.925h-4.719l-8.888-9.127v9.127Z" transform="translate(-10.103 -4)" fill="#253858"/>
        <path id="패스_2224" data-name="패스 2224" d="M145.342,30.375c-7.56,0-10.859-4.209-10.859-10.191,0-5.893,3.391-10.1,9.531-10.1,6.23,0,8.7,4.165,8.7,10.1v1.506H138.012c.5,3.323,2.7,5.45,7.468,5.45a18.657,18.657,0,0,0,6.14-1.063v3.1A14.532,14.532,0,0,1,145.342,30.375Zm-7.376-11.564h11.271c-.184-3.633-1.879-5.671-5.361-5.671C140.211,13.139,138.332,15.443,137.966,18.811Z" transform="translate(-6.291 -2.328)" fill="#253858"/>
        <path id="패스_2225" data-name="패스 2225" d="M160.389,27.632a14.84,14.84,0,0,0,2.2-.266V30.6a7.745,7.745,0,0,1-2.337.31c-4.306,0-6.414-2.437-6.414-6.07V14.385h-3.253v-3.1h3.253V7.163h3.39v4.12h5.361v3.1h-5.361V24.708C157.227,26.436,158.281,27.632,160.389,27.632Z" transform="translate(-1.866 -3.131)" fill="#253858"/>
      </g>
      <g id="Icon" transform="translate(-0.009 7.891)">
        <path id="Vector" d="M.919,6.19A.908.908,0,0,0,0,7.209L3.9,30.027a1.226,1.226,0,0,0,1.237,1.019H23.781a.923.923,0,0,0,.916-.753L28.592,7.209a.884.884,0,0,0-.916-1.019Zm16.4,16.482H11.365l-1.6-8.153h9.026Z" transform="translate(0.009 -6.19)" fill="#2684ff"/>
        <path id="Vector_2" d="M26.424,12.724H17.81l-1.42,8.153H10.434L3.378,28.94a1.269,1.269,0,0,0,.825.31H22.85a.923.923,0,0,0,.916-.753Z" transform="translate(0.94 -4.394)" fill="url(#linear-gradient)"/>
      </g>
    </g>
    <path id="패스_2226" data-name="패스 2226" d="M216.148,55.152c0-1.835-1.17-2.638-3.386-3.212-1.377-.349-1.712-.647-1.712-1.11,0-.551.486-.831,1.4-.831a7.576,7.576,0,0,1,3.212.849V48.554a7.25,7.25,0,0,0-3.12-.684c-2.414,0-3.753,1.161-3.753,3.028,0,1.79,1.184,2.7,3.212,3.152,1.4.312,1.835.546,1.835,1.147,0,.459-.335.835-1.377.835a7.553,7.553,0,0,1-3.7-1.055V57.4a8.026,8.026,0,0,0,3.671.853C214.941,58.254,216.148,57.02,216.148,55.152Z" transform="translate(4125.366 3102.321)" fill="#0052cc"/>
    <path id="패스_2227" data-name="패스 2227" d="M285.28,48.185V58.28h2.166V50.589l.918,2.037,3.028,5.649h2.7V48.18h-2.143V54.7l-.831-1.881-2.441-4.63Z" transform="translate(4083.958 3102.153)" fill="#0052cc"/>
    <path id="패스_2228" data-name="패스 2228" d="M252.839,48.19H250.49V58.285h2.349Z" transform="translate(4102.785 3102.148)" fill="#0052cc"/>
    <path id="패스_2229" data-name="패스 2229" d="M169.16,48.19V58.285h4.8l.757-2.184H171.5V48.19Z" transform="translate(4146.795 3102.148)" fill="#0052cc"/>
    <path id="패스_2230" data-name="패스 2230" d="M148.43,48.19V50.4h2.6V58.28h2.345V50.4h2.79V48.19Z" transform="translate(4158.013 3102.148)" fill="#0052cc"/>
    <path id="패스_2231" data-name="패스 2231" d="M133.208,48.19h-3.093L126.6,58.285h2.684l.5-1.707a6.81,6.81,0,0,0,1.886.28,6.365,6.365,0,0,0,1.886-.28l.5,1.707h2.684Zm-1.556,6.585a4.978,4.978,0,0,1-1.294-.184l1.294-4.419,1.294,4.419a4.868,4.868,0,0,1-1.3.184Z" transform="translate(4169.826 3102.148)" fill="#0052cc"/>
    <path id="패스_2232" data-name="패스 2232" d="M189.942,48.19h-3.093L183.33,58.285h2.684l.5-1.707a6.819,6.819,0,0,0,1.891.28,6.365,6.365,0,0,0,1.886-.28l.5,1.707h2.684Zm-1.556,6.585a5.047,5.047,0,0,1-1.294-.184l1.294-4.419,1.3,4.419A5.047,5.047,0,0,1,188.387,54.775Z" transform="translate(4139.127 3102.148)" fill="#0052cc"/>
    <path id="패스_2233" data-name="패스 2233" d="M266.208,48.19h-3.093L259.6,58.285h2.684l.5-1.707a6.883,6.883,0,0,0,1.891.28,6.365,6.365,0,0,0,1.886-.28l.5,1.707h2.684Zm-1.537,6.585a4.979,4.979,0,0,1-1.294-.184l1.294-4.419,1.294,4.419a5.121,5.121,0,0,1-1.308.184Z" transform="translate(4097.855 3102.148)" fill="#0052cc"/>
    <path id="패스_2234" data-name="패스 2234" d="M236.447,55.152c0-1.835-1.17-2.638-3.386-3.212-1.377-.349-1.712-.647-1.712-1.11,0-.551.486-.831,1.377-.831a7.576,7.576,0,0,1,3.212.849V48.553a7.25,7.25,0,0,0-3.157-.684c-2.414,0-3.753,1.161-3.753,3.028,0,1.79,1.184,2.7,3.212,3.152,1.4.312,1.835.546,1.835,1.147,0,.459-.34.835-1.377.835a7.553,7.553,0,0,1-3.7-1.055V57.4a8.025,8.025,0,0,0,3.671.853C235.241,58.253,236.447,57.019,236.447,55.152Z" transform="translate(4114.414 3102.322)" fill="#0052cc"/>
  </g>
</svg>
