<svg xmlns="http://www.w3.org/2000/svg" width="50.582" height="13.188" viewBox="0 0 50.582 13.188">
  <path id="패스_3716" data-name="패스 3716" d="M6.4-.294c-1.652,0-2.31-.126-2.31-.546s.658-.532,2.324-.532,2.31.126,2.31.532S8.064-.294,6.4-.294Zm.014-2.73c-2.9,0-4.606.77-4.606,2.184s1.708,2.2,4.606,2.2S11,.574,11-.84,9.3-3.024,6.412-3.024ZM7.56-5.152v-.532H11.2V-7.378H4.144v-.406h6.65V-9.408H4.144v-.406h6.93v-1.694H1.89v5.824h3.4v.532H.462V-3.4H12.376v-1.75ZM24.374-11.8H22.106v9.548h2.268ZM21.5-5.936a3.805,3.805,0,0,1-2.926-3.906v-1.246h-2.31v1.246a4.075,4.075,0,0,1-3.052,4.1l1.148,1.806A4.929,4.929,0,0,0,17.43-6.566a4.816,4.816,0,0,0,2.94,2.408ZM17.71-.644V-3.178H15.442V1.134h9.24V-.644Zm11.13-9.94H26.586v8.75h1.176a30.7,30.7,0,0,0,6.216-.56L33.74-4.228a30.884,30.884,0,0,1-4.9.518ZM38.346-7H36.652v-4.83H34.384V1.288h2.268v-6.44h1.694ZM49.728-8.806h-6.9v-2.842H40.558v4.606h9.17ZM47.4-.56h-4.62V-1.792H47.4Zm3.64-3.92V-6.258h-11.9V-4.48H43.9v.938H40.558V1.19h9.058V-3.542H46.172V-4.48Z" transform="translate(-0.462 11.83)" fill="#007dc3"/>
</svg>
