<svg id="그룹_272" data-name="그룹 272" xmlns="http://www.w3.org/2000/svg" xmlns:xlink="http://www.w3.org/1999/xlink" width="202.232" height="51.169" viewBox="0 0 202.232 51.169">
  <defs>
    <clipPath id="clip-path">
      <rect id="사각형_231" data-name="사각형 231" width="202.232" height="51.169" fill="none"/>
    </clipPath>
  </defs>
  <g id="그룹_271" data-name="그룹 271" transform="translate(0 0)" clip-path="url(#clip-path)">
    <path id="패스_2184" data-name="패스 2184" d="M158.8,59.848l2.526-5.867a16.839,16.839,0,0,0,9.94,3.1c2.648,0,4.318-1.019,4.318-2.567-.041-4.318-15.848-.937-15.97-11.774-.041-5.5,4.848-9.737,11.774-9.737,4.115,0,8.229,1.018,11.163,3.341l-2.363,5.989a17.832,17.832,0,0,0-9.207-2.933c-2.159,0-3.585,1.018-3.585,2.322.041,4.237,15.97,1.915,16.133,12.263,0,5.622-4.767,9.574-11.611,9.574-5.011,0-9.615-1.181-13.118-3.707" transform="translate(-94.105 -19.556)" fill="#fff"/>
    <path id="패스_2185" data-name="패스 2185" d="M365.233,51.863a7.292,7.292,0,1,1,0-7.17l6.966-3.87a15.277,15.277,0,1,0,0,14.911Z" transform="translate(-203.618 -19.556)" fill="#fff"/>
    <rect id="사각형_230" data-name="사각형 230" width="8.718" height="42.655" transform="translate(92.928 0.774)" fill="#fff"/>
    <path id="패스_2186" data-name="패스 2186" d="M422.2,1.9V44.555h8.718V31.762l10.348,12.792h11.163l-13.159-15.2,12.181-14.177H440.777l-9.859,11.774V1.9Z" transform="translate(-250.197 -1.126)" fill="#fff"/>
    <path id="패스_2187" data-name="패스 2187" d="M280.566,51.944a8.04,8.04,0,0,1-6.8,3.626,7.292,7.292,0,0,1,0-14.585,8.044,8.044,0,0,1,6.8,3.748Zm0-18.333v3.463C279.14,34.67,275.6,33,271.889,33,264.23,33,258.2,39.763,258.2,48.237s6.03,15.318,13.689,15.318c3.707,0,7.252-1.67,8.678-4.074v3.463h8.718V33.611Z" transform="translate(-153.01 -19.556)" fill="#fff"/>
    <path id="패스_2188" data-name="패스 2188" d="M10.855,71.578A5.378,5.378,0,1,1,5.478,66.2h5.378Z" transform="translate(-0.059 -39.23)" fill="#c3004e"/>
    <path id="패스_2189" data-name="패스 2189" d="M33.1,71.578a5.378,5.378,0,1,1,10.755,0V85.022a5.378,5.378,0,1,1-10.755,0Z" transform="translate(-19.615 -39.23)" fill="#c3004e"/>
    <path id="패스_2190" data-name="패스 2190" d="M38.478,10.755a5.378,5.378,0,1,1,5.378-5.378v5.378Z" transform="translate(-19.615 0)" fill="#29a5df"/>
    <path id="패스_2191" data-name="패스 2191" d="M18.863,33.1a5.378,5.378,0,0,1,0,10.755H5.378a5.378,5.378,0,1,1,0-10.755Z" transform="translate(0 -19.615)" fill="#29a5df"/>
    <path id="패스_2192" data-name="패스 2192" d="M99.2,38.478a5.378,5.378,0,1,1,5.378,5.378H99.2Z" transform="translate(-58.786 -19.615)" fill="#1a9a53"/>
    <path id="패스_2193" data-name="패스 2193" d="M76.955,18.863a5.378,5.378,0,1,1-10.755,0V5.378a5.378,5.378,0,1,1,10.755,0Z" transform="translate(-39.23 0)" fill="#1a9a53"/>
    <path id="패스_2194" data-name="패스 2194" d="M71.578,99.2a5.378,5.378,0,1,1-5.378,5.378V99.2Z" transform="translate(-39.23 -58.786)" fill="#f6a600"/>
    <path id="패스_2195" data-name="패스 2195" d="M71.578,76.955a5.378,5.378,0,0,1,0-10.755H85.063a5.378,5.378,0,1,1,0,10.755Z" transform="translate(-39.23 -39.23)" fill="#f6a600"/>
  </g>
</svg>
