<svg xmlns="http://www.w3.org/2000/svg" width="242.761" height="30.009" viewBox="0 0 242.761 30.009">
  <g id="그룹_4610" data-name="그룹 4610" transform="translate(-1020 -6891.5)">
    <g id="horizontal-logo-onecolor-blue-atlassian" transform="translate(1020 6891.5)">
      <path id="패스_2135" data-name="패스 2135" d="M125.012,21.462c0-4.255-2.283-6.271-8.644-7.659-3.538-.761-4.389-1.568-4.389-2.687,0-1.388,1.254-2.015,3.582-2.015a19.993,19.993,0,0,1,8.241,2.06v-5.6A18.362,18.362,0,0,0,115.742,3.9c-6.316,0-9.585,2.732-9.585,7.256,0,3.583,1.657,6.45,8.2,7.7,3.9.806,4.7,1.433,4.7,2.732,0,1.254-.806,2.06-3.582,2.06a20.09,20.09,0,0,1-9.451-2.553v5.867a19.138,19.138,0,0,0,9.406,2.06C122.325,29.031,125.012,25.985,125.012,21.462Z" transform="translate(27.138 0.978)" fill="#fff"/>
      <path id="패스_2136" data-name="패스 2136" d="M176.339,4.191V28.6h5.2V9.969l2.194,4.972L191.074,28.6h6.539V4.191h-5.2V19.957l-1.971-4.568-5.912-11.2Z" transform="translate(45.147 1.049)" fill="#fff"/>
      <path id="패스_2137" data-name="패스 2137" d="M151.042,4.191h-5.688V28.556h5.688Z" transform="translate(37.16 1.049)" fill="#fff"/>
      <path id="패스_2138" data-name="패스 2138" d="M143.926,21.462c0-4.255-2.284-6.271-8.645-7.659-3.537-.761-4.389-1.568-4.389-2.687,0-1.388,1.254-2.015,3.584-2.015a20,20,0,0,1,8.241,2.06v-5.6A18.368,18.368,0,0,0,134.655,3.9c-6.316,0-9.585,2.732-9.585,7.256,0,3.583,1.658,6.45,8.2,7.7,3.9.806,4.7,1.433,4.7,2.732,0,1.254-.806,2.06-3.584,2.06a20.085,20.085,0,0,1-9.45-2.553v5.867a19.132,19.132,0,0,0,9.405,2.06C141.239,29.031,143.926,25.985,143.926,21.462Z" transform="translate(31.98 0.978)" fill="#fff"/>
      <path id="패스_2139" data-name="패스 2139" d="M70.882,4.191V28.6h11.69l1.836-5.285H76.615V4.191Z" transform="translate(18.134 1.049)" fill="#fff"/>
      <path id="패스_2140" data-name="패스 2140" d="M52.47,4.191V9.476h6.271V28.6h5.733V9.476h6.763V4.191Z" transform="translate(13.43 1.049)" fill="#fff"/>
      <path id="패스_2141" data-name="패스 2141" d="M49.045,4.191h-7.48l-8.51,24.365H39.55l1.209-4.121a16.8,16.8,0,0,0,4.568.672,15.667,15.667,0,0,0,4.569-.672l1.209,4.121H57.6Zm-3.762,15.9a12.042,12.042,0,0,1-3.135-.448l3.135-10.66,3.135,10.66A12.044,12.044,0,0,1,45.283,20.091Z" transform="translate(8.466 1.049)" fill="#fff"/>
      <path id="패스_2142" data-name="패스 2142" d="M99.516,4.191h-7.48l-8.51,24.365h6.494l1.209-4.121a16.8,16.8,0,0,0,4.568.672,15.667,15.667,0,0,0,4.568-.672l1.209,4.121h6.495ZM95.8,20.091a12.044,12.044,0,0,1-3.135-.448L95.8,8.983l3.135,10.66A12.323,12.323,0,0,1,95.8,20.091Z" transform="translate(21.392 1.049)" fill="#fff"/>
      <path id="패스_2143" data-name="패스 2143" d="M169.475,4.191h-7.48l-8.51,24.365h6.494l1.209-4.121a16.806,16.806,0,0,0,4.569.672,15.667,15.667,0,0,0,4.569-.672l1.209,4.121h6.494Zm-3.762,15.9a12.036,12.036,0,0,1-3.135-.448l3.135-10.66,3.136,10.66A11.775,11.775,0,0,1,165.712,20.091Z" transform="translate(39.426 1.049)" fill="#fff"/>
      <path id="패스_2144" data-name="패스 2144" d="M143.926,21.462c0-4.255-2.239-6.271-8.645-7.659-3.537-.761-4.389-1.568-4.389-2.687,0-1.388,1.254-2.015,3.584-2.015a20,20,0,0,1,8.241,2.06v-5.6A18.463,18.463,0,0,0,134.655,3.9c-6.316,0-9.585,2.732-9.585,7.256,0,3.583,1.658,6.45,8.2,7.7,3.9.806,4.7,1.433,4.7,2.732s-.806,2.06-3.584,2.06a19.9,19.9,0,0,1-9.45-2.553v5.867a19.132,19.132,0,0,0,9.405,2.06C141.194,29.032,143.881,25.986,143.926,21.462Z" transform="translate(31.98 0.977)" fill="#fff"/>
      <path id="패스_2145" data-name="패스 2145" d="M8.545,11.123a.813.813,0,0,0-.627-.269.712.712,0,0,0-.448.358L.08,25.992a.6.6,0,0,0,.269.851.637.637,0,0,0,.269.09h10.3a.646.646,0,0,0,.582-.358C13.7,22.1,12.352,15.153,8.545,11.123Z" transform="translate(0 2.717)" fill="#fff"/>
      <path id="패스_2146" data-name="패스 2146" d="M27.4,28.71C27.217,28.441,13.556,1.03,13.2.358A.524.524,0,0,0,12.705,0h-.045a.7.7,0,0,0-.582.358,19.223,19.223,0,0,0-1.12,18.99l4.972,9.9a.6.6,0,0,0,.582.358h10.3a.612.612,0,0,0,.627-.627A.568.568,0,0,0,27.4,28.71Z" transform="translate(2.245)" fill="#fff"/>
    </g>
  </g>
</svg>
