<svg xmlns="http://www.w3.org/2000/svg" xmlns:xlink="http://www.w3.org/1999/xlink" width="134.179" height="43.313" viewBox="0 0 134.179 43.313">
  <defs>
    <clipPath id="clip-path">
      <rect id="사각형_5" data-name="사각형 5" width="134.179" height="43.314" fill="#fff"/>
    </clipPath>
  </defs>
  <g id="그룹_195" data-name="그룹 195" transform="translate(0)">
    <g id="그룹_1" data-name="그룹 1" transform="translate(0)" clip-path="url(#clip-path)">
      <path id="패스_1" data-name="패스 1" d="M89.344,48.875a9.108,9.108,0,0,1,.254-2.162,7.8,7.8,0,0,1,.846-2.068H89.9a7.547,7.547,0,0,0-.978,2.044,7.414,7.414,0,0,0-.339,2.186,6.64,6.64,0,0,0,.357,2.214,11.353,11.353,0,0,0,.959,2.035h.545a7.961,7.961,0,0,1-.846-2.072,9.141,9.141,0,0,1-.254-2.177" transform="translate(-19.465 -9.81)" fill="#fff"/>
      <path id="패스_2" data-name="패스 2" d="M100.013,48.629h-7.8v.752h3.479v3.3h.827v-3.3h3.5Zm-2.464-1.937a2.765,2.765,0,0,1-.634-.471,1.358,1.358,0,0,1-.371-.912h2.586v-.752H93.074v.752h2.594a1.355,1.355,0,0,1-.466.936,3.819,3.819,0,0,1-.785.559,4.729,4.729,0,0,1-.85.329,5.946,5.946,0,0,1-.907.179l.479.676q.367-.092.753-.2a4.721,4.721,0,0,0,.771-.282,4.491,4.491,0,0,0,.79-.5,2.564,2.564,0,0,0,.62-.634,2.406,2.406,0,0,0,.541.569,4.5,4.5,0,0,0,.634.428,4.973,4.973,0,0,0,.918.361,7.675,7.675,0,0,0,.907.211l.442-.715a6.446,6.446,0,0,1-1.029-.188,4.429,4.429,0,0,1-.936-.347" transform="translate(-20.262 -9.791)" fill="#fff"/>
      <path id="패스_3" data-name="패스 3" d="M105.291,48.921a6.8,6.8,0,0,0-.353-2.228,10.9,10.9,0,0,0-.964-2.049h-.536a8.066,8.066,0,0,1,.856,2.092,9.168,9.168,0,0,1,.254,2.186,9.018,9.018,0,0,1-.254,2.149,7.515,7.515,0,0,1-.856,2.054h.536a7.007,7.007,0,0,0,.982-2.026,7.51,7.51,0,0,0,.334-2.177" transform="translate(-22.729 -9.81)" fill="#fff"/>
      <path id="패스_4" data-name="패스 4" d="M109.771,46.547a1.63,1.63,0,0,1-.724-.169.581.581,0,0,1-.347-.564.546.546,0,0,1,.347-.54,1.752,1.752,0,0,1,.724-.155,1.885,1.885,0,0,1,.743.155.54.54,0,0,1,.367.531.586.586,0,0,1-.367.573,1.752,1.752,0,0,1-.743.169m4.908,5.246-4.945-.009v-.545h4.823V49.462h-5.651v.658h4.824v.508h-4.824v1.814h5.773Zm-2.689-4.5q-.545.048-1.138.113c-.4.044-.827.075-1.3.094-.382.013-.779.027-1.19.043s-.791.023-1.141.023l.2.79q.46-.056,1-.1t.931-.066v1h.8V48.127l.992-.1q.541-.056.945-.122Zm1.194-2.849h-.818V48.39h-1.411v.658h1.411v.226h.818Zm1.373-.207h-.827v5.039h.827Zm-4.785.254a2.789,2.789,0,0,0-1.255.292,1.046,1.046,0,0,0-.588,1.024,1.092,1.092,0,0,0,.588,1.058,2.7,2.7,0,0,0,1.265.306,2.733,2.733,0,0,0,1.269-.311,1.089,1.089,0,0,0,.6-1.053,1.044,1.044,0,0,0-.606-1.02,2.87,2.87,0,0,0-1.274-.3" transform="translate(-23.561 -9.72)" fill="#fff"/>
      <path id="패스_5" data-name="패스 5" d="M125.786,44.234h-.828V52.6h.828Zm-1.909.282h-.819v2.746h-1.663v.752h1.663V52h.819Zm-1.448,4.936q-.527.132-1.355.292a7.137,7.137,0,0,1-1.213.16V45.437h-.817v5.331a17.059,17.059,0,0,0,2.03-.23q.912-.165,1.458-.315Z" transform="translate(-26.158 -9.72)" fill="#fff"/>
      <path id="패스_6" data-name="패스 6" d="M138.077,51.1h-7.8v.752h7.8Zm-.959-2.2h-4.88V47.806h4.607v-.7h-4.607v-.968h4.739V45.39h-5.566v4.259l5.716.009Z" transform="translate(-28.626 -9.974)" fill="#fff"/>
      <path id="패스_7" data-name="패스 7" d="M144.712,46.81a1.772,1.772,0,0,1-.907-.211.655.655,0,0,1,0-1.171,2.018,2.018,0,0,1,1.814,0,.655.655,0,0,1,0,1.171,1.773,1.773,0,0,1-.907.211m4.269,2.859h-5.754v.751h4.927v2.191h.827Zm-1.448-2.154q-.789.084-1.472.165t-1.631.126q-.818.037-1.349.071t-1.312.023l.2.8q.818-.056,1.349-.1t1.039-.071v.912h.828V48.437q.639-.057,1.3-.137t1.152-.146Zm1.439-3.281h-.828v4.315h-1.777v.743h1.777v.179h.828Zm-4.259.338a2.646,2.646,0,0,0-1.514.385,1.274,1.274,0,0,0,0,2.115,3.159,3.159,0,0,0,3.027,0,1.274,1.274,0,0,0,0-2.115,2.641,2.641,0,0,0-1.514-.385" transform="translate(-31.152 -9.72)" fill="#fff"/>
      <path id="패스_8" data-name="패스 8" d="M161.081,50.994h-7.8v.752h7.8Zm-2.228-3.366a4.264,4.264,0,0,1-.827-.9,1.692,1.692,0,0,1-.339-.865c.019-.144.035-.27.047-.377s.022-.231.029-.375l-.922-.1a2.749,2.749,0,0,1-.367,1.556,4,4,0,0,1-.742.907,7.17,7.17,0,0,1-.871.607,8.173,8.173,0,0,1-1.358.625l.667.639c.246-.106.527-.241.847-.4a6.166,6.166,0,0,0,.873-.536,5.428,5.428,0,0,0,.673-.6,5.575,5.575,0,0,0,.673-.851,3.912,3.912,0,0,0,.489.677,5.235,5.235,0,0,0,.668.63,5.667,5.667,0,0,0,1,.649,7.661,7.661,0,0,0,1.034.423l.528-.667a4.712,4.712,0,0,1-1.176-.447,5.573,5.573,0,0,1-.922-.588" transform="translate(-33.681 -9.889)" fill="#fff"/>
      <path id="패스_9" data-name="패스 9" d="M117.472,11.8h-5.391v.639h5.391Zm-3.342,2.041-.067-1.195-.747.067.167,1.127h-1.3v.638h2.24v.789h-3.07v.638h6.885v-.638H115.15v-.789h2.223v-.638h-1.195l.274-1.061-.73-.15-.191,1.211Zm3.318,4.264h-4.322V16.429H112.4v2.339h5.044Z" transform="translate(-24.468 -2.593)" fill="#fff"/>
      <path id="패스_10" data-name="패스 10" d="M123.686,17.059a.865.865,0,0,1-.829-.663,4.309,4.309,0,0,1,0-2.891.846.846,0,0,1,1.65,0,4.334,4.334,0,0,1,0,2.891.862.862,0,0,1-.821.663m3.957-5.525h-.722v7.382h.722Zm-3.957.648a1.448,1.448,0,0,0-1.352.825,4.018,4.018,0,0,0-.449,1.946,4.012,4.012,0,0,0,.449,1.944,1.516,1.516,0,0,0,2.7,0,4.047,4.047,0,0,0,.444-1.944,4.053,4.053,0,0,0-.444-1.946,1.44,1.44,0,0,0-1.348-.825" transform="translate(-26.783 -2.534)" fill="#fff"/>
      <path id="패스_11" data-name="패스 11" d="M138.529,15.178h-6.885v.664l1.866.008v3.1h.722v-3.1l1.725-.008v3.1h.73v-3.1h1.841Zm-2-1.965a6.529,6.529,0,0,1-.663-.514,1.4,1.4,0,0,1-.391-.5.5.5,0,0,1,.005-.228c.019-.1.04-.2.062-.279l-.78-.074a1.354,1.354,0,0,1-.353,1.024,5.349,5.349,0,0,1-.7.643,5.236,5.236,0,0,1-.662.385,5.108,5.108,0,0,1-.963.369l.655.531a5.044,5.044,0,0,0,.651-.273,6.378,6.378,0,0,0,.659-.39,3.774,3.774,0,0,0,.54-.423c.121-.122.29-.312.506-.573a7.188,7.188,0,0,0,.672.6q.256.191.539.364a6.1,6.1,0,0,0,.692.357,5.006,5.006,0,0,0,.776.265l.464-.589a3.221,3.221,0,0,1-.945-.274,5.252,5.252,0,0,1-.764-.423" transform="translate(-28.927 -2.553)" fill="#fff"/>
      <path id="패스_12" data-name="패스 12" d="M8.193,24.87H3.545V20.338H7.263A2.129,2.129,0,0,1,9.588,22.43c0,2.15-1.4,2.441-1.4,2.441M7.96,17.258H0v17.49H3.545v-6.74H8.659a5.14,5.14,0,0,0,4.59-5.52,4.873,4.873,0,0,0-5.288-5.23" transform="translate(0 -3.792)" fill="#fff"/>
      <path id="패스_13" data-name="패스 13" d="M40.246,33.319h0a3.477,3.477,0,0,1-3.167-3.72,3.476,3.476,0,0,1,3.167-3.718A3.475,3.475,0,0,1,43.413,29.6a3.476,3.476,0,0,1-3.166,3.72m.145-10.4a6.775,6.775,0,1,0,6.508,6.77,6.643,6.643,0,0,0-6.508-6.77" transform="translate(-7.446 -5.036)" fill="#fff"/>
      <path id="패스_14" data-name="패스 14" d="M75.08,28.23h0a2.96,2.96,0,0,0-.929-2.045,2.385,2.385,0,0,0-1.548-.538,2.242,2.242,0,0,0-1.724.689,3.214,3.214,0,0,0-.752,1.894Zm3.206,3.853a5.28,5.28,0,0,1-2.256,3.122,5.616,5.616,0,0,1-3.162.9A6.066,6.066,0,0,1,68.49,34.6q-1.77-1.743-1.769-5.36a7.164,7.164,0,0,1,.928-3.745,5.3,5.3,0,0,1,4.977-2.583,5.577,5.577,0,0,1,3.8,1.292Q78.4,25.949,78.4,29.759V30.4h-8.4v.086a4.778,4.778,0,0,0,.574,1.852,2.484,2.484,0,0,0,2.3,1.12,2.3,2.3,0,0,0,1.26-.367,2.092,2.092,0,0,0,.841-1.012Z" transform="translate(-14.661 -5.035)" fill="#fff"/>
      <path id="패스_15" data-name="패스 15" d="M29.753,34.747h-3.3V26.915a3.974,3.974,0,0,0-.29-1.628,1.951,1.951,0,0,0-1.9-.915,2.5,2.5,0,0,0-1.874.758,3.171,3.171,0,0,0-.758,2.232v7.385h-3.3V17.254h3.3v6.27h.044a2.946,2.946,0,0,1,1.316-1.429,4.836,4.836,0,0,1,2.41-.6,4.386,4.386,0,0,1,3.1,1.094,4.225,4.225,0,0,1,1.249,3.257Z" transform="translate(-4.028 -3.791)" fill="#fff"/>
      <path id="패스_16" data-name="패스 16" d="M54.656,35.827h-3.57V23.309h3.458Zm8.08,0H59.442v-7.6a3.594,3.594,0,0,0-.312-1.581,1.9,1.9,0,0,0-1.824-.888,2.56,2.56,0,0,0-1.892.736,2.981,2.981,0,0,0-.758,2.167v7.168H51.362V23.309h3.182V25.15h.023a5,5,0,0,1,1.181-1.386,4.217,4.217,0,0,1,2.6-.8,4.478,4.478,0,0,1,3.116,1.061,4,4,0,0,1,1.269,3.162Z" transform="translate(-11.225 -5.046)" fill="#fff"/>
      <path id="패스_17" data-name="패스 17" d="M147.705,13.581a6.17,6.17,0,0,1,.588-5.665,6.566,6.566,0,0,1,6.276-3.286s6.013.09,6.144,6.816A6.052,6.052,0,0,1,156.4,17.59V16.458a2.285,2.285,0,0,0-2.4-2.179c-1.913,0-2.3,1.438-2.3,2.527V27.57s.205,2.267,2.3,2.267a2.185,2.185,0,0,0,2.4-2.353V22.471a11.235,11.235,0,0,0,9.108-11.5S165.245.006,154.146.006c0,0-9.949-.61-11.475,9.74a12.108,12.108,0,0,0,1.046,6.841s1.264,2.529,3.748,1.657c0,0,2.267-.872.241-4.664" transform="translate(-31.326 0)" fill="#fff"/>
      <path id="패스_18" data-name="패스 18" d="M159.075,13.427a2.321,2.321,0,1,1-2.321-2.321,2.321,2.321,0,0,1,2.321,2.321" transform="translate(-33.935 -2.44)" fill="#fff"/>
      <rect id="사각형_3" data-name="사각형 3" width="3.254" height="12.434" transform="translate(64.73 18.521)" fill="#fff"/>
      <rect id="사각형_4" data-name="사각형 4" width="3.254" height="3.08" transform="translate(64.73 13.524)" fill="#fff"/>
      <path id="패스_19" data-name="패스 19" d="M95.84,26.594c-.089-.541-.251-.549-.488-.8a2.5,2.5,0,0,0-1.753-.5,2.569,2.569,0,0,0-1.687.417,1.038,1.038,0,0,0-.332.833q0,.527.8.833a10.484,10.484,0,0,0,1.908.5,12.349,12.349,0,0,1,3.4,1.053,3.022,3.022,0,0,1,1.731,2.807,3.845,3.845,0,0,1-2,3.6,6.852,6.852,0,0,1-3.484.833,7.675,7.675,0,0,1-4.061-.965A3.437,3.437,0,0,1,87.9,32.027h3.417a1.089,1.089,0,0,0,.578,1.05,3.372,3.372,0,0,0,2.15.549,2.566,2.566,0,0,0,1.687-.483,1.1,1.1,0,0,0,.444-.855q0-.592-.843-.943a15,15,0,0,0-1.975-.5,12.531,12.531,0,0,1-3.329-1.031A3.039,3.039,0,0,1,88.363,27a4.019,4.019,0,0,1,1.065-2.85,5.239,5.239,0,0,1,4.017-1.426,7.326,7.326,0,0,1,3.616.767,3.422,3.422,0,0,1,2,3.1Z" transform="translate(-19.314 -4.994)" fill="#fff"/>
      <path id="패스_20" data-name="패스 20" d="M110.743,26.594c-.089-.541-.251-.549-.488-.8a2.5,2.5,0,0,0-1.752-.5,2.569,2.569,0,0,0-1.687.417,1.035,1.035,0,0,0-.332.833q0,.527.8.833a10.465,10.465,0,0,0,1.908.5,12.368,12.368,0,0,1,3.4,1.053,3.022,3.022,0,0,1,1.731,2.807,3.847,3.847,0,0,1-2,3.6,6.849,6.849,0,0,1-3.483.833,7.673,7.673,0,0,1-4.06-.965,3.439,3.439,0,0,1-1.975-3.178h3.418a1.088,1.088,0,0,0,.577,1.05,3.374,3.374,0,0,0,2.151.549,2.566,2.566,0,0,0,1.687-.483,1.1,1.1,0,0,0,.444-.855q0-.592-.843-.943a15.04,15.04,0,0,0-1.975-.5,12.512,12.512,0,0,1-3.329-1.031A3.04,3.04,0,0,1,103.265,27a4.016,4.016,0,0,1,1.066-2.85,5.238,5.238,0,0,1,4.016-1.426,7.324,7.324,0,0,1,3.616.767,3.421,3.421,0,0,1,2,3.1Z" transform="translate(-22.589 -4.994)" fill="#fff"/>
      <path id="패스_21" data-name="패스 21" d="M142.548,28.23h0a2.963,2.963,0,0,0-.928-2.045,2.383,2.383,0,0,0-1.548-.538,2.24,2.24,0,0,0-1.724.689,3.209,3.209,0,0,0-.752,1.894Zm3.207,3.853a5.282,5.282,0,0,1-2.255,3.122,5.622,5.622,0,0,1-3.163.9,6.067,6.067,0,0,1-4.379-1.507q-1.77-1.743-1.769-5.36a7.15,7.15,0,0,1,.929-3.745,5.3,5.3,0,0,1,4.976-2.583,5.577,5.577,0,0,1,3.8,1.292q1.969,1.744,1.969,5.554V30.4h-8.4v.086a4.789,4.789,0,0,0,.575,1.852,2.483,2.483,0,0,0,2.3,1.12,2.3,2.3,0,0,0,1.26-.367,2.091,2.091,0,0,0,.841-1.012Z" transform="translate(-29.486 -5.035)" fill="#fff"/>
      <path id="패스_22" data-name="패스 22" d="M130.314,36.023H127.12v-1.7h-.044a3.964,3.964,0,0,1-1.586,1.505,4.748,4.748,0,0,1-2.324.552,4.232,4.232,0,0,1-3.106-1.1,4.57,4.57,0,0,1-1.206-3.436V23.383h3.307v7.974A2.156,2.156,0,0,0,122.9,33.2a2.433,2.433,0,0,0,1.542.424,2.4,2.4,0,0,0,1.653-.595,2.727,2.727,0,0,0,.895-2.226V23.383h3.328Z" transform="translate(-26.116 -5.138)" fill="#fff"/>
    </g>
  </g>
</svg>
